<svg xmlns="http://www.w3.org/2000/svg" width="79.999" height="80" viewBox="0 0 79.999 80">
  <g id="car-insurance" transform="translate(0 0.001)">
    <g id="_007---Car-Insurance" data-name="007---Car-Insurance" transform="translate(0 -0.001)">
      <path id="Shape" d="M64.689,39.586H4l8.414-23.9A5.517,5.517,0,0,1,17.614,12H44Z" transform="translate(1.517 3.173)" fill="#90bae1"/>
      <path id="Shape-2" data-name="Shape" d="M27.759,12v5.517a1.379,1.379,0,1,1-2.759,0V12Z" transform="translate(9.482 3.173)" fill="#35495e"/>
      <path id="Shape-3" data-name="Shape" d="M10.027,34.31a1.379,1.379,0,0,1-1.3-1.837L13.9,17.759A4.148,4.148,0,0,1,17.808,15h2.36a1.379,1.379,0,0,1,0,2.759h-2.36a1.379,1.379,0,0,0-1.3.921L11.329,33.389A1.379,1.379,0,0,1,10.027,34.31Z" transform="translate(3.28 4.311)" fill="#b0d3f0"/>
      <path id="Shape-4" data-name="Shape" d="M33.414,21.517H22.379A1.379,1.379,0,0,1,21,20.138V17.379A1.379,1.379,0,0,1,22.379,16H33.414" transform="translate(7.965 4.69)" fill="#2c3e50"/>
      <path id="Shape-5" data-name="Shape" d="M3,50H16.793v9.655a2.759,2.759,0,0,1-2.759,2.759H5.759A2.759,2.759,0,0,1,3,59.655Z" transform="translate(1.138 17.586)" fill="#35495e"/>
      <path id="Shape-6" data-name="Shape" d="M39,50H52.793v9.655a2.759,2.759,0,0,1-2.759,2.759H41.759A2.759,2.759,0,0,1,39,59.655Z" transform="translate(14.792 17.586)" fill="#35495e"/>
      <path id="Shape-7" data-name="Shape" d="M52.592,32H5.517A5.517,5.517,0,0,0,0,37.517V58.207a1.379,1.379,0,0,0,1.379,1.379H70.344a1.379,1.379,0,0,0,1.379-1.379V37.517a5.473,5.473,0,0,0-3.49-5.117Z" transform="translate(0 10.759)" fill="#2980ba"/>
      <path id="Shape-8" data-name="Shape" d="M6.759,36h5.517a5.517,5.517,0,0,1,5.517,5.517,2.759,2.759,0,0,1-2.759,2.759H6.759A2.759,2.759,0,0,1,4,41.517V38.759A2.759,2.759,0,0,1,6.759,36Z" transform="translate(1.517 12.276)" fill="#f9eab0"/>
      <path id="Shape-9" data-name="Shape" d="M43.517,36h5.517a2.759,2.759,0,0,1,2.759,2.759v2.759a2.759,2.759,0,0,1-2.759,2.759H40.759A2.759,2.759,0,0,1,38,41.517,5.517,5.517,0,0,1,43.517,36Z" transform="translate(14.413 12.276)" fill="#f9eab0"/>
      <path id="Shape-10" data-name="Shape" d="M6.379,48H9.138a1.379,1.379,0,0,1,1.379,1.379v4.138H5V49.379A1.379,1.379,0,0,1,6.379,48Z" transform="translate(1.896 16.828)" fill="#fb7b76"/>
      <path id="Shape-11" data-name="Shape" d="M44.379,48h2.759a1.379,1.379,0,0,1,1.379,1.379v4.138H43V49.379A1.379,1.379,0,0,1,44.379,48Z" transform="translate(16.31 16.828)" fill="#fb7b76"/>
      <rect id="Rectangle-path" width="22.069" height="8.276" rx="1" transform="translate(24.827 56.552)" fill="#a5a5a4"/>
      <rect id="Rectangle-path-2" data-name="Rectangle-path" width="19.31" height="8.276" rx="1" transform="translate(26.207 56.552)" fill="#d1d4d1"/>
      <path id="Shape-12" data-name="Shape" d="M49.71,49.176l13.574-9.663A12.629,12.629,0,0,0,68.62,29.228V9.734a.69.69,0,0,0-.414-.633L49.586,1.057a.69.69,0,0,0-.552,0L30.414,9.1A.69.69,0,0,0,30,9.734V29.228a12.629,12.629,0,0,0,5.336,10.285L48.91,49.176A.69.69,0,0,0,49.71,49.176Z" transform="translate(11.379 -0.999)" fill="#894b9d"/>
      <path id="Shape-13" data-name="Shape" d="M37.018,33.383A7.142,7.142,0,0,1,34,27.591V11.272L47.793,5.313l13.793,5.959v16.32a7.142,7.142,0,0,1-3.018,5.793L47.793,41.053Z" transform="translate(12.896 0.637)" fill="#955ba5"/>
      <path id="Shape-14" data-name="Shape" d="M37.018,33.383A7.142,7.142,0,0,1,34,27.591V11.272L47.793,5.313l13.793,5.959v16.32a7.142,7.142,0,0,1-3.018,5.793L47.793,41.053Z" transform="translate(12.896 0.637)" fill="#b49aca"/>
      <path id="Shape-15" data-name="Shape" d="M43.9,28.5a1.379,1.379,0,0,1-.828-.276l-5.517-4.138a1.379,1.379,0,0,1,1.655-2.207l4.448,3.335,10.2-12.749a1.379,1.379,0,0,1,2.154,1.723L44.974,27.986A1.379,1.379,0,0,1,43.9,28.5Z" transform="translate(14.034 3.158)" fill="#3d324c"/>
    </g>
  </g>
</svg>
