<svg xmlns="http://www.w3.org/2000/svg" width="20" height="20" viewBox="0 0 20 20">
  <g id="united-states" transform="translate(0 0)">
    <circle id="Ellipse_1" data-name="Ellipse 1" cx="10" cy="10" r="10" fill="#f0f0f0"/>
    <g id="Group_15" data-name="Group 15" transform="translate(0.344 2.174)">
      <path id="Path_74" data-name="Path 74" d="M244.87,191.826H255.3a10.011,10.011,0,0,0-.345-2.609H244.87Z" transform="translate(-235.649 -184)" fill="#d80027"/>
      <path id="Path_75" data-name="Path 75" d="M244.87,58.261h8.967a10.052,10.052,0,0,0-2.307-2.609h-6.66Z" transform="translate(-235.649 -55.652)" fill="#d80027"/>
      <path id="Path_76" data-name="Path 76" d="M102.869,458.522a9.957,9.957,0,0,0,6.225-2.174H96.644A9.957,9.957,0,0,0,102.869,458.522Z" transform="translate(-93.213 -440.696)" fill="#d80027"/>
      <path id="Path_77" data-name="Path 77" d="M9.942,325.391H27.007a9.941,9.941,0,0,0,1.123-2.609H8.819A9.941,9.941,0,0,0,9.942,325.391Z" transform="translate(-8.819 -312.347)" fill="#d80027"/>
    </g>
    <path id="Path_78" data-name="Path 78" d="M4.632,1.562h.911L4.7,2.177l.324,1-.848-.616-.848.616.28-.861a10.055,10.055,0,0,0-1.94,2.162h.292l-.54.392q-.126.21-.242.427l.258.793L.952,5.738q-.179.38-.327.776l.284.874H1.957L1.109,8l.324,1L.585,8.384l-.508.369A10.1,10.1,0,0,0,0,10H10V0A9.953,9.953,0,0,0,4.632,1.562ZM5.02,9l-.848-.616L3.324,9l.324-1L2.8,7.388H3.848l.324-1,.324,1H5.543L4.7,8ZM4.7,5.091l.324,1-.848-.616-.848.616.324-1L2.8,4.475H3.848l.324-1,.324,1H5.543ZM8.607,9l-.848-.616L6.911,9l.324-1-.848-.616H7.435l.324-1,.324,1H9.13L8.283,8ZM8.283,5.091l.324,1-.848-.616-.848.616.324-1-.848-.616H7.435l.324-1,.324,1H9.13Zm0-2.913.324,1-.848-.616-.848.616.324-1-.848-.616H7.435l.324-1,.324,1H9.13Z" fill="#0052b4"/>
  </g>
</svg>
