<?xml version="1.0" encoding="utf-8"?>
<!-- Generator: Adobe Illustrator 21.1.0, SVG Export Plug-In . SVG Version: 6.00 Build 0)  -->
<svg version="1.1" xmlns="http://www.w3.org/2000/svg" xmlns:xlink="http://www.w3.org/1999/xlink" x="0px" y="0px"
	 width="1920px" height="960px" viewBox="0 0 1920 960" style="enable-background:new 0 0 1920 960;" xml:space="preserve">
<style type="text/css">
	.st0{display:none;}
	.st1{display:inline;}
	.st2{fill:#A66768;}
	.st3{fill:#FFFFFF;}
	.st4{fill:#FFFFFF;stroke:#01432E;stroke-width:0.185;}
	.st5{fill:none;stroke:#FFFFFF;stroke-width:1.334;stroke-linejoin:round;stroke-miterlimit:2.613;}
	.st6{fill:none;stroke:#D1D2D3;stroke-width:1.334;stroke-linejoin:round;stroke-miterlimit:2.613;}
	.st7{fill:#FFFFFF;stroke:#D1D2D3;stroke-width:1.334;stroke-linejoin:round;stroke-miterlimit:2.613;}
</style>
<g id="Layer_3" class="st0">
	<g id="Layer_1_2_" class="st1">
		<rect y="0" class="st2" width="1920" height="960"/>
	</g>
</g>
<g id="Layer_1">
	<g id="Layer_2_2_">
		<path class="st3" d="M160.5,19.4c-0.7,0-1.5,0-2.2,0.1c-0.3,0-0.5,0-0.8,0c-0.2,0-0.4,0-0.5,0c0,0,0,0,0.1,0
			c-26,1.8-46.5,23.4-46.5,49.9s20.6,48.1,46.5,49.9c0,0,0,0-0.1,0c0.2,0,0.4,0,0.5,0c0.3,0,0.5,0,0.8,0c0.7,0,1.5,0.1,2.2,0.1
			c27.6,0,50-22.4,50-50S188.1,19.4,160.5,19.4z M198,90.3L198,90.3L198,90.3C198,90.2,198,90.2,198,90.3l-28.7-25.9
			c-0.2-0.2-0.3-0.4-0.4-0.6l-8.2-37.1v-0.1v-0.1c23.6,0.1,42.8,19.3,42.8,43v0.1C203.4,77,201.5,84.1,198,90.3z M160.3,26.4v0.2
			v0.1l-8.2,37.1c-0.1,0.2-0.2,0.5-0.4,0.6L123,90.3l-0.1,0.1c-3.5-6.2-5.4-13.3-5.4-20.9C117.5,45.8,136.7,26.5,160.3,26.4z
			 M123.1,90.5h0.1l36.8-14c0.3-0.1,0.6-0.1,0.8,0l36.8,14h0.1c-7.2,13.1-21.2,21.9-37.2,21.9S130.5,103.6,123.1,90.5z"/>
		<path class="st3" d="M550.7,67.4C549.4,55,539,45.3,526.2,45.3l0,0l0,0c-0.8,0-1.5,0-2.2,0.1c-0.2,0-0.4,0-0.6,0.1
			c-0.2,0-0.4,0-0.6,0.1h0.1c-4.4,0.6-8.3,2.3-11.7,4.9c-4.2-3.2-9.4-5.2-15-5.2c-0.7,0-1.5,0-2.2,0.1c-0.2,0-0.4,0-0.6,0.1
			c-0.2,0-0.4,0-0.6,0.1h0.1c-4.5,0.6-8.6,2.4-11.9,5.1c-4.2-3.3-9.5-5.4-15.3-5.4l0,0l0,0c-0.8,0-1.5,0-2.2,0.1
			c-0.2,0-0.4,0-0.6,0.1c-0.2,0-0.4,0-0.6,0.1h0.1c-4.4,0.6-8.3,2.3-11.7,4.9c-4.2-3.2-9.4-5.2-15-5.2c-0.7,0-1.5,0-2.2,0.1
			c-0.2,0-0.4,0-0.6,0.1c-0.2,0-0.4,0-0.6,0.1h0.1c-12,1.6-21.2,11.9-21.2,24.4s9.2,22.7,21.2,24.4h-0.1c0.2,0,0.4,0,0.6,0.1
			c0.2,0,0.4,0,0.6,0.1c0.7,0.1,1.5,0.1,2.2,0.1c5.7,0,10.9-1.9,15-5.2c3.3,2.6,7.3,4.3,11.7,4.9h-0.1c0.2,0,0.4,0,0.6,0.1
			c0.2,0,0.4,0,0.6,0.1c0.7,0.1,1.5,0.1,2.2,0.1l0,0l0,0c5.8,0,11.1-2,15.3-5.4c3.4,2.7,7.5,4.5,11.9,5.1h-0.1c0.2,0,0.4,0,0.6,0.1
			c0.2,0,0.4,0,0.6,0.1c0.7,0.1,1.5,0.1,2.2,0.1c0.8,0,1.7,0,2.5-0.1c4.7-0.5,9-2.3,12.5-5c3.3,2.6,7.3,4.3,11.7,4.9h-0.1
			c0.2,0,0.4,0,0.6,0.1c0.2,0,0.4,0,0.6,0.1c0.7,0.1,1.5,0.1,2.2,0.1l0,0l0,0c12.7,0,23.2-9.7,24.5-22.1c0.1-0.8,0.1-1.7,0.1-2.5
			S550.8,68.2,550.7,67.4z M450.5,60.6c1.7,2.7,2.7,5.9,2.7,9.3c0,3.4-1,6.6-2.7,9.3c-1.7-2.7-2.7-5.9-2.7-9.3
			C447.8,66.5,448.8,63.3,450.5,60.6z M455.3,55.4c2.9-2,6.4-3.3,10.2-3.3c4,0,7.6,1.3,10.5,3.5c-2.8,4-4.5,8.9-4.5,14.2
			S473.2,80,476,84c-2.9,2.2-6.6,3.5-10.5,3.5c-3.8,0-7.3-1.2-10.2-3.3c3-4.1,4.7-9,4.7-14.5C460.1,64.5,458.3,59.5,455.3,55.4z
			 M478.5,69.9c0-3.2,0.9-6.2,2.4-8.8c1.5,2.6,2.4,5.6,2.4,8.8s-0.9,6.2-2.4,8.9C479.3,76.1,478.5,73.1,478.5,69.9z M490,72.4
			c0.1-0.8,0.1-1.7,0.1-2.5s0-1.7-0.1-2.5c-0.4-4.3-2-8.3-4.4-11.7c2.9-2.2,6.6-3.5,10.5-3.5c3.8,0,7.3,1.2,10.2,3.3
			c-3,4.1-4.7,9-4.7,14.5c0,5.4,1.8,10.4,4.7,14.5c-2.9,2-6.4,3.3-10.2,3.3c-4,0-7.6-1.3-10.5-3.5C488,80.7,489.6,76.7,490,72.4z
			 M513.9,69.9c0,3.4-1,6.6-2.7,9.3c-1.7-2.7-2.7-5.9-2.7-9.3c0-3.4,1-6.6,2.7-9.3C512.9,63.3,513.9,66.5,513.9,69.9z M517.8,81.6
			c1.9-3.5,3-7.5,3-11.7c0-5.4-1.8-10.4-4.7-14.5c2.9-2,6.4-3.3,10.2-3.3c9.8,0,17.7,7.9,17.7,17.7s-7.9,17.7-17.7,17.7
			c-3.8,0-7.3-1.2-10.2-3.3C516.7,83.5,517.3,82.6,517.8,81.6z M417.7,69.9c0-9.8,7.9-17.7,17.7-17.7c3.8,0,7.3,1.2,10.2,3.3
			c-3,4.1-4.7,9-4.7,14.5c0,5.4,1.8,10.4,4.7,14.5c-2.9,2-6.4,3.3-10.2,3.3C425.7,87.6,417.7,79.6,417.7,69.9z"/>
		<g>
			<path class="st3" d="M846.1,52.5c-0.5-1.1-1-2.2-1.6-3.3c-3.1-5.7-7.2-10.7-12.2-14.7c-0.6-0.5-1.2-1-1.9-1.5
				c-0.3-0.2-0.6-0.5-1-0.7c-0.7-0.5-1.3-0.9-2-1.3c-0.3-0.2-0.7-0.4-1-0.6c-0.7-0.4-1.4-0.8-2.1-1.2c-0.4-0.2-0.7-0.4-1.1-0.6
				c-0.7-0.4-1.4-0.7-2.2-1.1c-2.2-1-4.5-1.8-6.9-2.5c-0.8-0.2-1.6-0.4-2.4-0.6c-3.6-0.8-7.4-1.3-11.3-1.3c-0.4,0-0.7,0-1.1,0
				c-27.1,0.6-48.9,22.7-48.9,50s21.8,49.4,48.9,50c0.4,0,0.7,0,1.1,0l0,0c10.8,0,20.8-3.4,28.9-9.2c0.3-0.2,0.7-0.5,1-0.7
				c4.2-3.1,7.8-6.9,10.9-11.1c0.9-1.3,1.8-2.7,2.6-4.1c1-1.7,1.9-3.6,2.7-5.4c0.2-0.4,0.3-0.8,0.5-1.1c0.3-0.8,0.6-1.5,0.8-2.3
				c0.4-1.2,0.7-2.3,1.1-3.5c0.2-0.8,0.4-1.6,0.6-2.4c0.7-3.3,1-6.6,1-10.1C850.5,65.7,848.9,58.8,846.1,52.5z M757.5,73.1
				c0-23.7,19.3-43,43-43s43,19.3,43,43s-19.3,43-43,43C776.8,116,757.5,96.8,757.5,73.1z"/>
			<path class="st3" d="M800.1,60c0.2,0.3,0.6,0.3,0.8,0l9.6-21.2c0.1-0.2,0-0.5-0.3-0.6c-3.1-0.9-6.3-1.3-9.7-1.3s-6.6,0.5-9.7,1.3
				c-0.3,0.1-0.4,0.4-0.3,0.6L800.1,60z"/>
			<path class="st3" d="M794.7,76.6h11.7c0.2,0,0.3,0.1,0.4,0.2l5.9,11c0.2,0.3,0.6,0.3,0.8,0L829.7,52c0.1-0.1,0-0.3,0-0.4
				c-2.5-3.4-5.7-6.4-9.2-8.7c-0.2-0.1-0.5-0.1-0.6,0.2L807,70.6c-0.1,0.2-0.2,0.2-0.4,0.2h-11.7c-0.2,0-0.3-0.1-0.4-0.2l-13-27.5
				c-0.1-0.2-0.4-0.3-0.6-0.2c-3.6,2.3-6.7,5.3-9.2,8.7c-0.1,0.1-0.1,0.3,0,0.4l16.2,35.9c0.1,0.3,0.6,0.3,0.8,0l5.9-11
				C794.4,76.7,794.5,76.6,794.7,76.6z"/>
			<path class="st3" d="M766.1,64.9c-0.2-0.4-0.7-0.3-0.8,0.1c-0.6,2.6-0.9,5.3-0.9,8.1c0,13.7,7.6,25.6,18.9,31.8
				c0.4,0.2,0.8-0.2,0.6-0.6L766.1,64.9z"/>
			<path class="st3" d="M810.5,107.8l-10-22.2l-10,22.2c3.2,0.9,6.5,1.4,10,1.4C804,109.2,807.3,108.7,810.5,107.8z"/>
			<path class="st3" d="M817.7,104.8c11.3-6.1,18.9-18.1,18.9-31.8c0-2.8-0.3-5.5-0.9-8.1c-0.1-0.4-0.6-0.5-0.8-0.1l-17.8,39.3
				C817,104.7,817.4,105,817.7,104.8z"/>
		</g>
		<g id="__x0023_fefefeff_1_">
		</g>
		<g>
			<path class="st3" d="M1166.6,49.1c-5.2-12.3-15.5-22.4-27.9-27.2c-6.9-2.7-14.5-3.8-22-3.3c-10.4,0.8-20.6,5-28.6,11.7
				c-7.9,6.7-13.7,15.9-16.2,26.1c-2,7.9-2,16.3,0,24.2c1.4,5.5,3.7,10.8,6.9,15.5c6.4,9.6,16.1,16.9,27.2,20.2
				c7.5,2.3,15.6,2.7,23.3,1.3c5.8-1,11.3-3.1,16.4-6.1c9.4-5.5,16.9-14.2,21-24.3C1171.8,75.2,1171.7,61.1,1166.6,49.1z
				 M1154.5,102.7c-4.2,4.1-9.1,7.5-14.4,9.9c-11.8,5.3-25.8,5.5-37.8,0.6c-5.5-2.3-10.5-5.5-14.8-9.6c-6.3-5.8-10.9-13.4-13.3-21.6
				c-2.3-7.8-2.5-16.1-0.8-24c2-9.5,7.1-18.3,14.3-24.9c6.8-6.4,15.5-10.7,24.7-12.2c2.2-0.4,4.5-0.6,6.7-0.7
				c7.1-0.2,14.2,1.1,20.7,3.9c11.8,5.2,21.4,15.1,25.9,27.2c2.8,7.2,3.7,15.2,2.8,22.9C1167.3,84.9,1162.2,95.1,1154.5,102.7z"/>
			<path class="st3" d="M1156.5,39.3c-5.2-6.4-12.2-11.5-20.1-14.4c-6.3-2.3-13.1-3.2-19.7-2.6c-8.4,0.7-16.7,3.7-23.5,8.8
				c-8.3,5.9-14.4,14.7-17.2,24.5c-2.2,7.7-2.4,16.1-0.4,23.9c1.3,5.5,3.7,10.8,7,15.5c3.7,5.4,8.7,10,14.4,13.4
				c4.7,2.8,9.8,4.7,15.1,5.6c7.7,1.4,15.8,0.9,23.2-1.7c5.4-1.8,10.4-4.7,14.8-8.3c8-6.6,13.7-16,15.8-26.2
				c1.5-7.3,1.2-15-0.9-22.2C1163.3,49.7,1160.3,44.1,1156.5,39.3z M1113.7,24.7c1.2,0,2.5,0,3.6-0.1c1.1,2.9,2.2,5.8,3.3,8.7
				c1.1-2.9,2.2-5.8,3.3-8.7c1.2,0,2.5,0,3.7,0c0,4,0,8.2,0,12.2c-0.9,0-1.7,0-2.5,0c0-2.8,0-5.6,0-8.5c-1,2.9-2.1,5.7-3.2,8.5
				c-0.9,0-1.8,0-2.6,0c-1-2.9-2.1-5.7-3.2-8.5c0,2.9,0,5.7,0,8.5c-0.9,0-1.7,0-2.5,0C1113.7,32.9,1113.7,28.8,1113.7,24.7z
				 M1083,44.8c2-2.4,4-4.8,6.1-7.2c0.7-0.8,1.7-1.7,2.8-1.7c1.2-0.1,2.1,0.9,2.8,1.8c0.4,0.7,0.5,1.5,0.2,2.3
				c0.9-0.6,2.2-0.7,3.2-0.1c1,0.6,1.8,1.7,1.7,2.8c-0.1,0.9-0.6,1.8-1.2,2.5c-2.1,2.5-4.2,5-6.3,7.5
				C1089.3,50,1086.1,47.4,1083,44.8z M1146.3,83c-2.9,5.2-7.4,9.4-12.8,12.1c-5.9,2.9-12.7,3.7-19.1,2.4c-5.1-1-9.8-3.5-13.7-6.9
				c-3.7-3.4-6.6-7.6-8.2-12.3c-2-5.9-2.1-12.5-0.3-18.5c1.5-5.1,4.5-9.7,8.5-13.2c4.5-4,10.2-6.6,16.2-7.4
				c5.5-0.7,11.1,0.2,16.1,2.6c4.8,2.2,9,5.8,12,10.1c2.7,4,4.5,8.6,5,13.5C1150.5,71.4,1149.3,77.6,1146.3,83z M1148,52.9
				c-0.7-0.9-1.5-1.8-2.2-2.8c1.5-2.1,2.9-4.3,4.4-6.5c-2.4,1-4.8,2-7.2,3c-0.8-0.9-1.5-1.8-2.3-2.8c2.6-3.3,5.1-6.6,7.7-9.8
				c0.7,0.7,1.3,1.5,1.9,2.3c-1.6,2.1-3.2,4.2-4.8,6.3c2.5-1,4.8-2.1,7.3-3.1c0.7,0.9,1.3,1.7,2,2.5c-1.5,2.1-3.1,4.4-4.6,6.5
				c2.4-1.1,4.7-2.3,7.1-3.4c0.7,0.8,1.3,1.5,1.9,2.3C1155.5,49.2,1151.8,51.1,1148,52.9z"/>
			<path class="st3" d="M1092.3,39.6c-0.6-0.6-1.7-0.7-2.1-0.1c-1.2,1.4-2.3,2.8-3.5,4.2c0.7,0.6,1.5,1.2,2.2,1.8
				c1.2-1.4,2.4-2.8,3.6-4.2C1092.9,40.8,1092.8,40,1092.3,39.6z"/>
			<path class="st3" d="M1108.8,43.4c-4.8,2.2-8.8,5.8-11.7,10.2c-2.8,4.4-4.4,9.6-4.4,14.8c9.2,0,18.5,0,27.7,0
				c0-9.2,0-18.5,0-27.7C1116.5,40.8,1112.4,41.6,1108.8,43.4z"/>
			<path class="st3" d="M1096.6,44.3c0.5-0.6,0.3-1.5-0.2-2c-0.6-0.6-1.7-0.6-2.1,0.1c-1.2,1.5-2.5,2.9-3.7,4.4
				c0.8,0.7,1.5,1.3,2.3,2C1094.1,47.3,1095.3,45.8,1096.6,44.3z"/>
			<path class="st3" d="M1120.5,96.2c3.4,0,6.8-0.7,10-1.9c5-2,9.4-5.4,12.5-9.8c3.4-4.7,5.2-10.4,5.2-16.1c-9.2,0-18.5,0-27.7,0
				C1120.5,77.7,1120.5,86.9,1120.5,96.2z"/>
		</g>
		<g>
			<path class="st3" d="M1370.6,84.5v-2.9h1.6c0.8,0,2.4-0.2,2.4-2.1V62c0-1.1-0.1-3.6-2.1-3.6h-1.9l2.1-3.7h124.9v3.7h-114.9
				c-1.1,0-2.4,0.2-2.4,2.4v5.5c0.2,0.6,1.2,0.9,1.7,0.9s2.2-0.1,2.2-2.8h2.4v9h-2.4c0-0.8-0.9-2.2-2.1-2.3c-1-0.1-1.8,0.2-1.8,1.5
				v6.8c0,0.7,0.9,2.1,3,2.1h1.5v2.9L1370.6,84.5L1370.6,84.5z"/>
			<path class="st3" d="M1442.7,62.6c0,0.6,0.8,1.3,1.3,1.5c0.6-0.4,3.6-2.1,5.9-2.1c2.4,0,3.6,1.2,3.6,3.1V74h-5.7v-6.9
				c0-0.9-0.2-1.5-1.1-1.6c-0.8-0.1-2.9,1.6-3.5,2.4v12.3c0,1.1,1.1,1.9,2.1,1.9v2.4h-9.9v-2.4c1,0,2-0.3,2.1-1.8V66.6
				c0-0.4-0.6-1.5-2.1-1.5v-2.4L1442.7,62.6L1442.7,62.6z M1510.6,62.6h-9.9V65c1.5,0,2.1,1.1,2.1,1.5v13.7
				c-0.1,1.5-1.1,1.8-2.1,1.8v2.4h9.9V82c-1,0-2.1-0.8-2.1-1.9V66.6c0-1,1.1-1.7,2.1-1.7V62.6z M1420.8,62.6c0,0.6,0.8,1.3,1.3,1.5
				c0.6-0.4,3.6-2.1,5.9-2.1c2.4,0,3.6,1.2,3.6,3.1V74h-5.7v-6.9c0-0.9-0.2-1.5-1.1-1.6c-0.8-0.1-2.9,1.6-3.5,2.4v12.3
				c0,1.1,1.1,1.9,2.1,1.9v2.4h-9.9v-2.4c1,0,2-0.3,2.1-1.8V66.6c0-0.4-0.6-1.5-2.1-1.5v-2.4L1420.8,62.6L1420.8,62.6z M1486.6,62.6
				c0,0.6,0.8,1.3,1.3,1.5c0.6-0.4,3.6-2.1,5.9-2.1c2.4,0,3.6,1.2,3.6,3.1V74h-5.7v-6.9c0-0.9-0.2-1.5-1.1-1.6
				c-0.8-0.1-2.9,1.6-3.5,2.4v12.3c0,1.1,1.1,1.9,2.1,1.9v2.4h-9.9v-2.4c1,0,2-0.3,2.1-1.8V66.6c0-0.4-0.6-1.5-2.1-1.5v-2.4
				L1486.6,62.6L1486.6,62.6z M1409.3,77.7h-5.7v2.2c0,0.9-0.2,2.8-2.8,2.8s-3.5-1.8-3.5-3.1V75c0-0.4,0.3-1,0.9-1h11.1v-5.9
				c0-2.7-0.6-3.5-1.7-4.6c-1.1-1.1-5.1-1.5-6.9-1.5c-4.5,0-6,0.6-7.3,1.7c-1.3,1.1-1.8,3.2-1.8,4.9v9.2c0,2.4,0.5,4.1,2,5.7
				c1.5,1.5,6.2,1.5,7.2,1.5s4.2,0.1,6.6-1.6C1409.7,81.6,1409.3,77.7,1409.3,77.7L1409.3,77.7z M1397.2,67.6c0-1.3,0.4-3.2,3.2-3.2
				s3.1,2.1,3.1,3.2v2.9c0,0.5-0.4,1-1,1h-4.4c-0.5,0-1-0.4-1-0.9v-3H1397.2z M1474.3,80.2V68c0-1.9-0.1-3.8-2-5.2
				c-1.9-1.4-5.1-1.3-6.3-1.3s-5.3,0-7.1,2.1c-1.9,2.1-1.5,4.1-1.5,5h5.3c0,0,0.4-2.8,1.1-3.5s2.7-1.5,4.2-0.2
				c0.6,0.5,0.8,1.1,0.8,1.8v3.5c0,0.3-0.3,0.8-0.7,0.8c0,0-7.4,0.2-8.7,1.1c-1.3,1-2.4,1.6-2.4,5.2c0,3.6,0.9,5,1.9,5.7
				c1.1,0.7,1.5,1.5,6.3,1.5h11.4v-2.4C1475.5,82.2,1474.3,81.3,1474.3,80.2L1474.3,80.2z M1468.7,81.6c0,0.2-0.3,0.5-0.6,0.5h-2.8
				c-2,0-2.6-1.7-2.6-2.8v-3.1c0-3,3.2-3,4.4-3s1.5,1.1,1.5,1.7L1468.7,81.6L1468.7,81.6z M1505.3,58.3c2.8,0,5.1-0.9,5.1-1.9
				c0-1.1-2.3-1.9-5.1-1.9c-2.8,0-5.1,0.9-5.1,1.9C1500.2,57.5,1502.5,58.3,1505.3,58.3z"/>
		</g>
		<g>
			<path class="st3" d="M1787,70.4c-1.6-0.2-3.6,1.2-5.2,3.2c-0.8,1-1.7,2.9-1.8,4c-0.2,1.1,0.1,2.3,0.5,2.6s2.2,1.3,5-1.6
				c1.6-1.6,3.1-4.2,3.1-4.2l-0.5-0.1C1789.1,72.5,1788.9,70.6,1787,70.4z"/>
			<g>
				<g>
					<path class="st3" d="M1760.5,96.2L1760.5,96.2L1760.5,96.2z"/>
					<path class="st3" d="M1830.5,69.7c0-14.6-31.3-26.5-70-26.5s-70,11.9-70,26.5s31.3,26.5,70,26.5S1830.5,84.3,1830.5,69.7z
						 M1760.5,93.5c-37.1,0-67.3-10.6-67.3-23.7s30.2-23.8,67.3-23.8c37.2,0,67.3,10.7,67.3,23.8S1797.7,93.5,1760.5,93.5z"/>
				</g>
				<g>
					<path class="st3" d="M1760.5,91.6L1760.5,91.6L1760.5,91.6z"/>
					<path class="st3" d="M1825.7,69.7c0-12.1-29.2-21.9-65.2-21.9s-65.1,9.8-65.1,21.9c0,12.1,29.1,21.9,65.1,21.9
						S1825.7,81.8,1825.7,69.7z M1728.6,83.2c-3.9,0-7.4-2.6-7.5-7.2c0-2.8,2.2-6.2,6.4-7.3c0.5,0,0.7,0.2,0.7,0.5
						c0,0.2-0.2,0.4-0.6,0.6c-1.2,0.5-3.3,2.8-3.3,5.1c0,1.7,1,3.5,2.8,3.9c0.5,0.1,0.9,0.1,1.4,0.1c4.4,0,9.3-4.9,14.6-12.4
						c-0.9,0-4.5,0.5-5.4,1.5c-0.4,0.3-0.7,0.1-0.8-0.2c0-0.1,0.1-0.4,0.3-0.6c1.4-1.6,5.8-2,6.8-2.1c3.9-5.9,8.8-9.7,10.2-10h-0.1
						c-3.5-0.8-6.6-1.5-9.1-1.5c-8.7,0-12.6,3.7-12.4,7.2c0.1,1.4,1.2,2.3,2.9,2c1.8-0.3,4.3-2,5-3.5c0.1-0.3,0.5-0.4,0.6-0.3
						c0.3,0.2,0.2,0.5,0.2,0.5c-0.2,1.8-2.9,6.6-7.6,6.6c-2.6,0-4.4-2.4-4.3-4.8c0-4.5,4.6-9,15.8-9c2.1,0,4.5,0.2,7.1,0.6
						c3,0.5,10.6,1.8,16.7,1.9c2.3,0,5.1,0.1,7.5-0.3c2.5-0.4,1.9-0.5,2.9-0.5c0.9,0,0.9,0.4,0.9,0.7l0,0c0,1.4-5.1,4.2-9.3,4.2
						c-6.3,0-12.9-2.9-16.3-3.8c0.1,0.1,0.2,0.3,0.1,0.6c0,0.1-0.5,0.6-0.7,0.7c-0.9,0.8-4,2.8-7.3,8.4c2.7-0.1,5.9-0.7,5.9-0.7
						s-0.2-0.6-0.2-1.1c0.1-1.9,1.3-3.1,2.7-2.9c0.8,0.1,1.4,0.8,1.4,1.5c0,0.8-0.6,1.9-1.2,2.4c-0.4,0.3-0.9,0.6-1.4,0.9l0,0
						c0,0.5,0.7,0.9,1.3,0.9c-0.1,0.5-0.1,0.7-0.3,0.7c-1.4,0-1.9-1.3-1.9-1.3c-1.8,0.3-3.6,0.5-7.1,0.9
						C1736.9,80.8,1734.1,83.2,1728.6,83.2z M1789.7,80.1c0.1,0.9,1.2,0.6,0.8,0.6c1.9-0.1,5.5-3.8,6.4-4.7c0.2-0.2,0.5-0.6,0.7-0.6
						s0.5,0.2,0.5,0.5c0,0.2-0.4,0.9-0.7,1.3c-1.8,2.3-4.8,5.7-8.2,5.8c-1.7,0-2.3-0.7-2.5-2c-0.8,0.7-3.4,1.9-6,1.9
						c-2.2,0-3.1-1.4-3.6-2.4c-0.4-0.9-0.6-2.1-0.3-3.4c-1.2,0.6-2.3,0.7-4,0.7c-1.9,0-3.1-0.9-3.7-3.1c-2.2,4-2.3,4.1-4.5,8.3h-3.8
						l4.9-8.4c0.6-1.1,0.9-2,1.2-3c0.1-0.5-0.3-1-0.9-1.1c-0.6,0-1.7,0.6-2.7,1.6c0,0-2.5,2.7-4.4,5.5c-1.8,2.6-4.8,5.6-8.1,5.6
						c-2.4,0-4.6-1.3-5-3.8c0,0-0.2,0.6-2.3,1.8c-0.2,0.1-0.6,0.4-0.8,0.3c-0.4-0.4-0.6-0.8-0.7-1.1c0.1,0,0.4-0.2,1.3-0.9
						c1.7-1.3,2-2.3,2-2.3c0.4-0.9,1.1-2.2,1.6-3.2c1.4-2.7,3.7-5.5,7.5-5.6c0.6,0,0.8,0.3,0.9,0.5c0.4,0.3,0.2,0.8,0.2,0.8
						c-2.7,0.4-4.6,2-5.7,3.5c-0.7,1-1.4,2.6-1.5,3.8c-0.3,2,0.7,3.4,2.1,3.7c2.6,0.4,4.8-1.5,6.5-4.4c0.5-0.8,0.8-2.8,0.8-3.8
						s-0.6-2.2-1-2.7c0-0.8,0.5-1.3,1.1-1.3c0.2,0,0.4,0,0.5,0.2c0.9,0.9,1.4,2.6,1.4,3.9c0,0.5,0,0.9-0.1,1.4
						c1.9-2.3,4.3-5.3,6.1-5.9c0.4-0.2,0.7-0.2,1.1-0.2c3.4-0.1,2.9,3,2.9,3c1.8-2.1,3.1-2.8,4.7-2.8c1.8,0.1,2.4,1.4,2.4,2.3
						c0,1.2-0.9,2.5-2.4,2.6c-1.3,0-2.1-0.6-2.5-1.8c-0.9,0.3-1.3,0.9-1.4,2.1c-0.3,1.5,0.9,2.7,2.3,2.7c2.5,0,3.6-1.1,4.5-1.9l0,0
						c3.1-2.9,4.8-5.9,9.2-5.9c2.7,0,3.3,2.2,3.8,3.1l5.8-9.8h3.6l-9.7,17.1C1790.1,78.9,1789.7,79.6,1789.7,80.1z"/>
				</g>
			</g>
		</g>
		<g>
			<path class="st3" d="M192.8,433.5v7.2h2.3v-4.8h8.4v4.8h2.3v-7.2H192.8z M194.9,431.2h8.8c1.2-0.2,2.1-1.3,2.4-2.4h-13.6
				C192.7,429.9,193.7,431,194.9,431.2 M185.9,440.7c1.2-0.5,1.8-1.3,2-2.3h-10.3v-9.5h-2.3v11.9h10.6V440.7z M158.1,431.2h8.2
				c1.2-0.4,2.3-1.3,2.5-2.3h-13v7h10.6v2.5h-8.3c-1.3,0.4-2.4,1.2-3,2.4h0.7h12.9v-7.2h-10.6L158.1,431.2L158.1,431.2z
				 M137.9,431.2h8.8c1.2-0.2,2.1-1.3,2.4-2.4h-13.6C135.7,429.9,136.7,431,137.9,431.2 M137.9,435.9h8.8c1.2-0.2,2.1-1.3,2.4-2.4
				h-13.6C135.7,434.6,136.7,435.6,137.9,435.9 M137.9,440.7h8.8c1.2-0.2,2.1-1.3,2.4-2.4h-13.6
				C135.7,439.4,136.7,440.5,137.9,440.7 M114.9,428.8c0.3,1,1.2,2.1,2.4,2.4h3.7l0.2,0.1v9.4h2.3v-9.4l0.2-0.1h3.7
				c1.2-0.3,2.1-1.3,2.4-2.4l0,0H114.9L114.9,428.8z"/>
			<path class="st3" d="M160.5,405.4l11.6-65.3c11.1,0,14.6,1.2,15.1,6.2c0,0,7.4-2.8,11.2-8.4c-14.6-6.8-29.3-7.1-29.3-7.1
				l-8.6,10.4l0,0l-8.6-10.4c0,0-14.7,0.3-29.3,7.1c3.7,5.6,11.2,8.4,11.2,8.4c0.5-5,4-6.2,15-6.2L160.5,405.4z"/>
		</g>
		<path class="st3" d="M527.3,391.3c-0.1,6.3,1.2,9.6,6.4,9.6s5.9-5.7,5.9-10s-1-8.5-6.4-8.5C529.9,382.4,527.4,385,527.3,391.3
			L527.3,391.3z M516.8,417.6V375h10.6v1.7c0,2.3,0.9,1.4,1.7,0.5c0.1-0.1,2.5-3,7.8-3s13.6,3.7,13.6,16.8
			c0,10.1-4.9,17.5-13.4,17.5c-4.7,0-7.4-1.8-8-2.6c-0.6-0.7-1.5-0.9-1.5,0v11.7H516.8 M434.8,361.2h11.5v30.1c0,5.2-2.2,16-18.1,16
			s-17.6-10.1-17.6-15.8V386h11.1v5.4c0,3.3,2.2,6.4,6.4,6.4c4.2,0,6.8-2.3,6.8-6.3L434.8,361.2 M470.3,386.7c0-3.1-1.7-6-5.7-6
			c-3.8,0-5.2,2.7-5.2,6H470.3z M463.5,373.8c9,0,16.9,3.5,16.9,19.4h-21.3c0,5.1,2.1,7.2,5.8,7.2c3.7,0,4.9-3,4.9-3h10.5
			c0,4.6-6.3,10.7-15.8,10.6c-10.9,0-16.2-8-16.2-16.3C448.3,383.4,453,373.8,463.5,373.8 M504.4,386.7c0-3.1-1.7-6-5.7-6
			c-3.8,0-5.2,2.7-5.2,6H504.4z M497.6,373.8c9,0,16.9,3.5,16.9,19.4h-21.3c0,5.1,2.1,7.2,5.8,7.2c3.7,0,4.9-3,4.9-3h10.5
			c0,4.6-6.3,10.7-15.8,10.6c-10.9,0-16.2-8-16.2-16.3C482.4,383.4,487.1,373.8,497.6,373.8 M543.5,412.5c0-1.7,1.4-3.1,3.1-3.1
			c1.7,0,3.1,1.4,3.1,3.1s-1.4,3.1-3.1,3.1C544.8,415.5,543.5,414.2,543.5,412.5z M543.1,412.5c0,1.9,1.5,3.4,3.4,3.4
			s3.4-1.5,3.4-3.4s-1.5-3.4-3.4-3.4S543.1,410.6,543.1,412.5"/>
		<g>
			<path class="st3" d="M843.6,422.1V421h-87.2v1.1H843.6z M753.2,400.1h-8.5v1.3h1.1c0.3,0,0.7,0.4,0.7,0.7v3.2h5.2v-3.9h1.5V400.1
				L753.2,400.1z M778.3,417.7v-5.3h-2.8v2.3c0,0.8-0.4,1.7-1,1.7h-3.1c-0.3,0-0.7-0.4-0.7-0.7v-5.9c0-0.3,0.2-0.5,0.5-0.5h0.9
				c0.3,0,0.7,0.4,0.7,0.7v1.1h2.6v-5.3h-2.5v1.1c0,0.3-0.5,0.8-0.7,0.8h-0.9c-0.3,0-0.5-0.3-0.5-0.6V402c0-0.3,0.4-0.6,0.7-0.6h3
				c0.4,0,0.7,0.4,0.7,0.7v2.4h2.6V400h-14v1.3h1.1c0.3,0,0.7,0.4,0.7,0.7v13.5c0,0.3-0.4,0.6-0.7,0.6h-1.1v1.3L778.3,417.7
				L778.3,417.7z M783.5,406.9l5.8,10.8h5.1v-15.5c0-0.3,0.4-0.7,0.7-0.7h1.1v-1.3h-5.7v1.3h1.1c0.3,0,0.7,0.4,0.7,0.7v9.1
				l-6.2-11.1h-6.6v1.3h1.1c0.3,0,0.7,0.4,0.7,0.7v13.5c0,0.3-0.4,0.6-0.7,0.6h-1.1v1.3h5.7v-1.3h-1.1c-0.3,0-0.7-0.4-0.7-0.6
				L783.5,406.9L783.5,406.9z M800.2,406.5l-2.9,9.3c-0.1,0.3-0.3,0.6-0.5,0.6h-1.1v1.3h5.4v-1.3H800c-0.3,0-0.6-0.3-0.5-0.6
				l1.1-4.1c0-0.1,0.1-0.2,0.2-0.2h2.2v-1.6h-1.6c-0.1,0-0.2-0.1-0.2-0.2l0.9-3.1L800.2,406.5L800.2,406.5z"/>
			<path class="st3" d="M803,411.4h2c0.1,0,0.2,0.1,0.2,0.2l1.1,4.1c0.1,0.3-0.2,0.6-0.5,0.6h-1.1v1.3h8.8v-1.3h-1
				c-0.3,0-0.4-0.3-0.5-0.6l-4.6-15.6h-7.7v1.3h0.9c0.8,0,1.1,0.6,1,1.2l-1.2,3.8h1.9l0.9-2.9l1.7,6.1c0,0.1-0.1,0.2-0.2,0.2h-1.5
				L803,411.4L803,411.4L803,411.4z M826.8,413.6v-11.4c0-0.3,0.4-0.7,0.7-0.7h1.1v-1.3h-5.3v1.3h1.1c0.3,0,0.7,0.5,0.7,0.7v11.5
				c0,3.1-5.7,3.5-5.7-0.1v-11.3c0-0.3,0.4-0.7,0.7-0.7h1.1v-1.3h-8.7v1.3h1.1c0.3,0,0.7,0.4,0.7,0.7v11.5
				C814.1,419.3,826.8,419.6,826.8,413.6L826.8,413.6z M836.8,402.2c0-0.3,0.4-0.7,0.7-0.7h1.1v-1.3h-8.8v1.3h1.1
				c0.3,0,0.7,0.4,0.7,0.7v13.5c0,0.3-0.4,0.6-0.7,0.6H830v1.3h13.6v-5.2h-2.8v2.3c0,0.8-0.4,1.7-1,1.7h-2.3c-0.3,0-0.7-0.4-0.7-0.7
				V402.2L836.8,402.2z"/>
			<path class="st3" d="M849,417.7h4.4v-1.3h-1.1c-0.3,0-0.7-0.4-0.7-0.7v-13.9c0-0.2,0.1-0.3,0.3-0.3c1.3,0,1.8,0.5,1.8,2.2v1.6
				h2.5v-5.2h-14.5v5.2h2.5v-1.6c0-1.7,0.5-2.2,1.8-2.2c0.2,0,0.3,0.1,0.3,0.3v13.9c0,0.3-0.4,0.7-0.7,0.7h-1.1v1.3H849L849,417.7z
				 M752.2,409.2c0.2,0,0.5,0.2,0.6,0.4l0,0l3.5,8h6.1v-1.3H762c-0.4,0-0.5-0.5-0.8-0.8l-3.7-6.5c2.2,0,3.4-1.8,3.4-4.1
				c0-2.4-1.1-4.7-3.9-4.7h-4v1.3h0.5c2.4,0,2.5,6.4,0,6.4h-2v-2.5h-5v10.3c0,0.3-0.4,0.6-0.7,0.6h-1.1v1.3h8.7v-1.3h-1.1
				c-0.3,0-0.7-0.4-0.7-0.6v-6.5H752.2L752.2,409.2L752.2,409.2L752.2,409.2z M800.9,377.6l-5.3,9.3c-0.2,0.3-0.6,0-0.5-0.3
				l4.4-10.2l-8.9-15.3h-12.1c0,0.2,0.1,0.4,0.1,0.4l15.6,27c0.1,0.1,0.3,0.3,0.5,0.3h11.6c0.2,0,0.4-0.2,0.5-0.3l15.6-27
				c0.1-0.1,0.2-0.3,0.3-0.6h-12.2l-10,17.3L800.9,377.6z"/>
			<path class="st3" d="M808.8,360.9h13.7c0.2,0,0.4-0.2,0.4-0.4c0-0.3-0.1-0.7-0.2-1l-15.6-27c-0.2-0.3-0.5-0.4-0.8-0.4h-11.5
				c-0.3,0-0.7,0.1-0.9,0.4l0,0l-15.5,27c-0.2,0.3-0.3,0.8-0.3,1.2c0,0.2,0.1,0.4,0.4,0.4l0,0h13.8l7.9,13.6
				c0.1,0.2,0.4,0.3,0.5,0.1c0.1,0,0.1-0.1,0.1-0.1L808.8,360.9L808.8,360.9L808.8,360.9z M808.1,360.6l-7.5,13.1l-7.6-13.1
				l7.6-13.1L808.1,360.6z M792.2,360.3h-13.3c0-0.1,0.1-0.3,0.2-0.4l15.5-27h0.1h0.1c0.1,0,11.5,0,11.5,0h0.1l15.6,27
				c0,0.1,0.1,0.1,0.1,0.2h-13.4l-7.8-13.6c-0.1-0.2-0.4-0.3-0.5-0.1c-0.1,0-0.1,0.1-0.1,0.1L792.2,360.3L792.2,360.3z"/>
			<path class="st3" d="M790.5,360.3h2.1l7.9-13.6l7.8,13.5h2.1l-8.9-15.4l4.5-10.2c0.1-0.3-0.4-0.5-0.5-0.2L790.5,360.3z
				 M793.9,388.6c0.2,0.3,0.5,0.5,0.8,0.5l0,0h11.6c0.3,0,0.6-0.2,0.8-0.4l15.6-27.1c0.1-0.1,0.1-0.6,0.1-0.8l-0.8-0.1v0.5v0.1
				l-15.6,27c0,0-0.1,0.1-0.2,0.1h-11.5c-0.1,0-0.2-0.1-0.2-0.1l-15.6-27c0-0.1-0.1-0.2-0.1-0.3c0-0.2-0.2-0.4-0.4-0.3
				c-0.2,0-0.4,0.2-0.3,0.4c0,0.1,0,0.2,0.1,0.3l0.1,0.3L793.9,388.6z"/>
		</g>
		<g>
			<path class="st3" d="M1136.8,403.8h16.5c3.9,0,8.4,1.5,8.4,7.7c0,6.6-4.1,8.4-8.4,8.4h-16.5v-3.2h3.2v-9.6h-3.2V403.8z
				 M1146.3,416.6h4.5c2.6,0,4.1-2,4.1-4.8c0-2.4-1.3-4.8-4-4.8h-4.5L1146.3,416.6 M1093,403.2c3,0,12.4,0.4,12.4,8.6
				s-9.4,8.6-12.4,8.6c-3.1,0-12.5-0.4-12.5-8.6C1080.5,403.7,1090,403.2,1093,403.2L1093,403.2z M1087.6,411.8c0,4,2.4,5.4,5.4,5.4
				s5.4-1.5,5.4-5.4c0-4-2.4-5.4-5.4-5.4S1087.6,407.9,1087.6,411.8 M1050.5,416.6h3.2V407h-3.2v-3.2h12.7v3.2h-3.2v3.2h9.7V407
				h-3.2v-3.2h12.7v3.2h-3.2v9.6h3.2v3.2h-12.7v-3.2h3.2v-3.2h-9.7v3.3h3.2v3.2h-12.7V416.6 M1116.8,419.8h-10.1v-3.2h3.1V407h-3.1
				v-3.2h12.7l9,12V407h-3.1v-3.2h10.1v3.2h-3.1v12.8h-9.6l-9-12.1v8.9h3.1V419.8 M1190.5,416.6v3.2h-13.7v-3.2h3.2l-1.2-2.3h-8.5
				l-1.2,2.3h3.2v3.2h-10.4v-3.2h3.1l5.5-9.6h-3.8v-3.2h13.3l7.5,12.8L1190.5,416.6L1190.5,416.6z M1177.1,411.3l-2.6-4.9l-2.6,4.9
				H1177.1 M1118.5,381.9c-0.5,0-0.9,0-1.3,0.1c-1.7,0.2-2.4,0.7-3,1.8c-0.4,0.7-1.2,3-1.8,5.8c-1.2,0-2.5-0.1-3.7-0.2
				c-0.4-4-1.4-20.6-1.4-26.3c0.7,0,1.4-0.1,2.2-0.1c0.5,2.6,2.1,11.8,3.5,14.7c0.6,1.3,1.6,1.7,2.9,1.8c1.7,0.1,3.4,0.1,5.1,0
				c1.3-0.1,2.3-0.5,2.9-1.8c1.3-2.9,3-12.1,3.5-14.7c0.8,0,1.6,0.1,2.2,0.1c0,5.7-1,22.3-1.4,26.3c-1.1,0.1-2.4,0.1-3.7,0.2
				c-0.6-2.8-1.4-5.1-1.8-5.8c-0.6-1.1-1.2-1.6-3-1.8C1119.4,381.9,1119,381.9,1118.5,381.9"/>
			<path class="st3" d="M1118.5,393.9c-3.4,0-11.3-0.2-13.8-0.7c-2.7-0.5-4.6-2.1-5.5-4.7c-0.8-2.2-1.3-6.3-1.7-12.2
				c-0.2-3.7-0.2-7,0-9.8c0.4-4.8,2.6-6.7,7.3-7.3c3.1-0.3,10.1-0.5,13.8-0.5s10.7,0.2,13.8,0.5c4.6,0.5,6.9,2.4,7.3,7.3
				c0.2,2.8,0.2,6.1,0,9.8c-0.3,5.9-0.9,10-1.7,12.2c-0.9,2.6-2.8,4.2-5.5,4.7C1129.8,393.7,1122,393.9,1118.5,393.9L1118.5,393.9z
				 M1132,391.1c1.8-0.3,3.3-1.6,3.9-3.3c0.5-1.4,1.2-4.5,1.6-11.6c0.2-3.6,0.2-6.8,0-9.5c-0.3-3.3-1.9-4.9-5.4-5.3
				c-3-0.3-9.9-0.5-13.5-0.5c-3.7,0-10.5,0.2-13.5,0.5c-3.5,0.4-5.1,2-5.4,5.3c-0.2,2.7-0.2,5.9,0,9.5c0.4,7.1,1.1,10.2,1.6,11.6
				c0.5,1.3,1.8,2.9,3.9,3.3c2.2,0.4,9.3,0.7,13.4,0.7S1129.8,391.5,1132,391.1"/>
		</g>
		<g>
			<path class="st3" d="M1510.2,385.7c0,19.3-31.2,35-69.7,35s-69.7-15.7-69.7-35s31.2-35,69.7-35S1510.2,366.4,1510.2,385.7z
				 M1440.5,353.5c-37,0-67,14.4-67,32.2c0,17.8,30,32.2,67,32.2s67-14.4,67-32.2S1477.5,353.5,1440.5,353.5L1440.5,353.5z"/>
			<path class="st3" d="M1505.7,385.7c0,16.9-29.2,30.5-65.2,30.5s-65.2-13.7-65.2-30.5s29.2-30.5,65.2-30.5
				S1505.7,368.9,1505.7,385.7z M1482.3,371.4h-11.2l-1.4,3.9h7.2l-8.3,2.9l-0.5,1.6l12.7-4.2L1482.3,371.4L1482.3,371.4z
				 M1411,378.3h-4.6c0,0,4.2-11.3,4.6-12.1c0.6-1.5,1-1.4,1-1.4h-6.3c0.8,0.4,0.1,1.8,0.1,1.8s-5,14-5.4,14.7s-0.6,0.8-0.6,0.8
				h10.9l1.5-4.2C1412,378.4,1411,378.3,1411,378.3L1411,378.3z M1430.1,382.1h5.1c0,0-0.4-0.5-0.1-1.1c0.3-0.8,3-8.2,3-8.2l1.2,9.3
				h4.7l6.1-16.5c0,0,0.2-0.8,0.6-0.8h-4.9c0,0,0.1,0.6,0,1c-0.2,0.4-3,7.9-3,7.9l-1.1-9h-5.3c0,0,0.3,0.4,0.1,0.9l-5.6,15.4
				C1430.8,381.2,1430.4,382.1,1430.1,382.1L1430.1,382.1z M1453.6,364.8c0,0,0.4,0.7-0.1,2.3c-0.6,1.6-5,13.7-5,13.7
				s-0.4,1.1-0.8,1.4h7c0,0,8.5,0.3,11.1-8.6c0,0,3.3-8.8-6.3-8.7L1453.6,364.8L1453.6,364.8L1453.6,364.8z M1454.3,378.2
				c0,0,0,0,0.8,0c1.2,0,3.4-0.3,4.9-3.9c2.4-5.9-1-5.7-1-5.7h-1.3L1454.3,378.2z M1391.9,396.1h11.2l1.4-3.9h-7.2l8.3-2.9l0.5-1.6
				l-12.7,4.2L1391.9,396.1L1391.9,396.1z M1411.5,403.3c-0.2,0-0.2-0.6-0.2-0.6l2.1-5.5c0,0,2.6,5,2.7,5.4c0.2,0.4,0.1,0.6,0.1,0.6
				h6.1c-0.6,0-1.2-1.1-1.2-1.1l-3.1-5.5c4.3,0,5.6-4.2,5.6-4.2c2.1-6.7-5-6.6-5-6.6h-7.3c0.5,0.6,0.1,1.8,0.1,1.8
				s-4.5,12.9-4.9,13.9s-1,1.7-1,1.7L1411.5,403.3L1411.5,403.3z M1415.8,389.9l-1.2,3.5h1.1c0,0,2.2,0.2,3-1.5c0,0,0.9-2-1.7-2
				C1416.5,389.9,1415.8,389.9,1415.8,389.9L1415.8,389.9z M1474.9,403.4c-0.4,0-0.1-1.1-0.1-1.1l1.8-5c0,0,2.5,5,2.6,5.4
				c0.2,0.4,0.1,0.6,0.1,0.6h6.4c-0.6,0-1.2-1.1-1.2-1.1l-3.1-5.5c4.3,0,5.6-4.1,5.6-4.1c2.2-7-4.9-6.7-4.9-6.7h-7.2
				c0.5,0.6,0.1,1.8,0.1,1.8s-4.7,12.9-5,13.9c-0.2,0.6-0.6,1.2-1,1.6L1474.9,403.4L1474.9,403.4z M1479.1,393.5
				c0,0,2.1,0.2,2.8-1.5c0.8-2-1.2-1.9-1.2-1.9h-1.6l-1.2,3.5h1.2V393.5z M1431.3,403.7c6.3,0,10.1-6.2,10.1-10.7
				c0-4.7-1.9-7.6-6.3-7.6c-5.6,0-9.2,4.2-10.2,9.5C1424,399.9,1426.8,403.7,1431.3,403.7z M1431.7,399.6c1.6,0.3,3.3-0.8,4.2-4.5
				c1.4-5.5-1.2-5.5-1.6-5.6c-1.4-0.2-3.3,1.4-4,4.8C1429.9,395.9,1429.6,399.2,1431.7,399.6L1431.7,399.6z M1442.9,386
				c0,0,0.4,0.2,0.4,1.3v15c0,0-0.1,0.8-0.4,1h4.7c0,0,0-0.4,0.5-0.9c0.5-0.6,10.2-13.7,10.2-13.7s2.2-2.7,2.8-2.7h-6.7
				c0,0,0.5,0.4,0.1,1s-6.4,9.6-6.4,9.6l0.1-9c0,0,0-1.4,0.6-1.6L1442.9,386L1442.9,386z M1471.3,390.1l1.5-4.1h-11.4
				c0,0,0.4,0.4-0.1,1.8c-0.5,1.5-5.1,13.9-5.1,13.9s-0.8,1.6-1.1,1.6h11.8l1.4-4.2c0,0-0.2,0.2-1.3,0.2h-5l1.1-2.8h3.9
				c0,0,0.8-0.1,1,0.2l1.6-4.4c0,0-0.1,0.4-1.2,0.4h-3.7l1.1-3.1h4.7C1470.5,389.7,1471.1,389.6,1471.3,390.1L1471.3,390.1z
				 M1411.9,382.1h5.6c0,0,0-0.4,0.1-0.7c0.3-0.5,1-1.7,1-1.7h5.7v1.5c0,0,0,0.5-0.4,0.9h5.6c0,0-0.4-0.2-0.5-0.9l-0.7-15.3
				c0,0,0-1,0.4-1.2h-5.6c0,0,0.4,0.5-0.4,1.6c-0.7,1.1-10.3,15.2-10.3,15.2S1412.4,381.9,1411.9,382.1L1411.9,382.1z M1424.2,370.7
				l-3.1,5.1h3.2L1424.2,370.7z"/>
		</g>
		<g>
			<path class="st3" d="M1760.5,339.4c-27.6,0-50,22.4-50,50s22.4,50,50,50s50-22.4,50-50S1788.1,339.4,1760.5,339.4z M1760.5,438.1
				L1760.5,438.1L1760.5,438.1L1760.5,438.1c-26.9,0-48.7-21.8-48.7-48.7s21.8-48.8,48.7-48.8c26.9,0,48.7,21.9,48.7,48.8
				S1787.4,438.1,1760.5,438.1z"/>
			<path class="st3" d="M1762.8,349c0.2,1.6,0.7,4.1-0.5,5.5c-1.1,0.8-2.6,1.1-3.7,0.3c-1.4-1.4-1.2-3.5-0.9-5.3
				c0.2-1,0.9-2.1,1.9-2.3C1760.9,347.1,1762.5,347.6,1762.8,349L1762.8,349z"/>
			<path class="st3" d="M1783.7,355.5c0.2,1.6-0.5,3.4-1.9,4.4c-1.4,1.1-4.2-1-4.2-1l3.2-5.8
				C1781.9,353.8,1783.3,354.1,1783.7,355.5L1783.7,355.5z"/>
			<path class="st3" d="M1793.5,372.6l-1.6-2.8l5.3-1L1793.5,372.6L1793.5,372.6z"/>
			<path class="st3" d="M1741.2,422.9l-1.6-1.2l2.3-1.9L1741.2,422.9L1741.2,422.9z M1781.8,422.2c0.6,1.3,0,2.4-1.4,2.6
				c-1.8,0.3-2.4-1.6-3-2.7c-0.5-1,0.2-2.5,1.4-2.6C1780.6,419.2,1781.1,421.2,1781.8,422.2L1781.8,422.2z"/>
			<path class="st3" d="M1760.5,342.1c-26.1,0-47.3,21.2-47.3,47.3c0,26.1,21.2,47.3,47.3,47.3c26.1,0,47.3-21.2,47.3-47.3
				C1807.8,363.3,1786.6,342.1,1760.5,342.1z M1778.9,349.4c2.9,1.6,6.4,2.5,8.1,5.6l0,0c0.7,2.1,0,4.1-1,5.8
				c-0.9,1.6-3.3,2.9-4.6,2.7c-2.9-0.5-5.3-2.3-8.1-4L1778.9,349.4z M1753.9,348.5c0.7-2.6,3.7-3.3,6.2-3.5c2.2,0,4.4,0.3,5.9,1.9
				l0,0c1.3,1.8,1.4,4.2,1.1,6.4c-0.4,1.9-1.9,3.2-3.7,3.7c-2.8,0.3-6.1,1-8.6-1.6C1753.3,353.4,1753.3,351,1753.9,348.5z
				 M1739.5,350.7l3.2-1.7c0.3,1.8-0.2,4.3-0.3,6.2l0,0c2.1,1.3,4.7,2.2,6.8,3.6l-3.5,1.7l-6.2-3.2V350.7z M1736.2,352.8l6.5,9.5
				l-2.7,2l-6.4-9.6L1736.2,352.8z M1720.2,366.9l1.4-0.2l-0.6-1.1c0.3-0.4,0.5-0.9,0.8-1.3l0.8,1.4l-1.3,2.3l0,0
				c-0.4,0-1.1,0.1-1.5,0.2C1719.8,367.9,1720.2,366.9,1720.2,366.9z M1730.1,376.4l-1.9-1.2c1.4-1.3,3.5-3.2,2.6-5.1
				c-2.7-1.3-3.2,3.7-6,3.7c-1.3,0-2.9-0.9-3.4-2.3c0,0-0.2-0.9-0.2-1.4c0-1,0.4-2.1,0.9-3s1.1-1.6,1.1-1.6l1.6-1.8l1.6,1.3l0,0
				c-1,1.2-2.3,2.3-2.5,3.9c0,0.5,0.5,1.2,1.1,1.1c1.7-1.4,3.5-4.4,6-3.7c1.3,0,2.5,1.3,2.8,2.3
				C1734.5,371.7,1732.2,374.4,1730.1,376.4z M1742.6,428.1L1742.6,428.1l-2.6-1.7l0.6-1.9l-2.4-1.8l-1.7,1.2
				c-0.7-0.6-1.3-1.2-2-1.8l6.9-5.1l3.5,2.1L1742.6,428.1z M1755.6,430.7c-1.2,0.9-3.2,0.4-4.4,0c-2.8-1-2.3-3.3-2.3-3.3l1.3-5.5
				l2.7,0.6l-1,5.7c0,0.9,1.6,1.5,2.3,0.6c0.2-0.6,0.8-3.9,1.1-5.8c0.9,0.2,1.9,0.4,2.6,0.6C1757.6,425,1757.4,429.1,1755.6,430.7z
				 M1769.2,430.7l-2.8,0.6l-1.3-6.3l-2.2,0.5l-0.4-1.9l7.2-1.6l0.5,1.9l-2.3,0.6L1769.2,430.7z M1783.5,424.8
				c-1.4,1.4-3,2.3-4.9,2.1c-1.7-0.2-3.2-1.9-3.7-3.3c-0.3-1.4-0.3-2.9,0.7-3.9c1.4-1.3,2.8-2.1,4.8-2.3c1.8,0,3.4,1.9,4.1,3.5l0,0
				C1785.1,422.4,1784.6,424,1783.5,424.8z M1760.5,418.9c-16.3,0-29.6-13.2-29.6-29.5s13.2-29.6,29.6-29.6
				c16.3,0,29.5,13.2,29.5,29.6C1790,405.7,1776.8,418.9,1760.5,418.9z M1791.7,379.9l-1.6-3.5l2.1-2l-2.3-4l-2.6,0.6l-2-2.8
				l12.7-2.1l2.5,4.2l0,0L1791.7,379.9z"/>
			<path class="st3" d="M1775.1,399.3c-0.7,0.9,0.6,1.9-0.2,2.6c-0.7,0.2-1.9,0-2.2-0.8c0,0,0-0.9,0.2-2c0.3-1.1,1.2-3.9,1.2-3.9
				c3.2-11.6-0.9-22.5-8.4-30.6l0,0c-2.9-3.1-6.7-2.2-10.2-1.8c-1.1,0.2-3,0.7-2,2.6c0,0,2.7,2.6,3.6,3.5c1,1,2.7,3.1,2.7,3.1
				s0.6,0.7,0.4,1.3c-0.1,0.3-0.5,0.8-1.3,0.3l-3.9-4.3c0,0-3.2-4.3-6.3-4c-1.7,0.2-4,1.7-5.8,3.3c-1.8,1.5-3.1,3.2-3.5,3.9
				c-1.3,2.5,1.3,1.9,5.4,4.1c1.4,0.7,3.5,1.8,3.6,2.9c-0.3,1.7-1.6,0.4-2.7-0.2c-0.9-0.5-7.7-5.5-9.9-0.8c-0.5,0.9-1,2-1.3,3.1
				c-0.7,2.3-0.9,4.6,0,5.3c1.1,0.8,2.8,0.6,4.4,0.5c1.5-0.1,2.6,0,4.2,0.8c5.3,2.6,9,8.1,8.5,13.1c-0.1,0.2-0.2,0.3-0.3,0.3
				c-1.6,0.4-3.2-1-4.8-1.7c-4.1-1.5-10.5-0.5-10.8-0.1c-0.6,1.2,2.8,2.9,3.5,4.5c0.7,1.3,1,3.1,2.1,4.2c0.5,0.3,2.5,0.3,3.6,0.1
				c0.8-0.2,2.3-2.5,3-2.6h26.8c1.1,0.7-0.6,1.7,0,2.4c3.7,0.9,7.3-1.9,9.6-4.8C1781.8,401.5,1778.7,398.9,1775.1,399.3z
				 M1765.8,399.7c-2.2,0-4.1-1.8-4.1-4.1c0-2.3,1.8-4.1,4.1-4.1c2.2,0,4.1,1.9,4.1,4.1C1769.8,397.9,1768,399.7,1765.8,399.7z"/>
		</g>
		<path class="st3" d="M187.3,711.1c1.5-3.5,2.9-6.9,2.9-7c0.1-0.2,0.2-0.3,0.5-0.3h1.1c0.2,0,0.4,0.2,0.5,0.3c0.4,1,1.6,4,2.9,7
			H187.3z M197.3,702.5c-1.4-3.3-0.9-2.9-4.1-3.1h-3.8c-3,0.1-2.5-0.2-3.6,2c0,0-5.2,11.8-7.4,16.7l-0.1,0.2
			c-0.4,0.8-0.1,0.9,0.6,0.9h4.7c0.3,0,0.5-0.2,0.6-0.3c0,0,0.6-1.5,1.5-3.6H197c0.5,1.2,1,2.4,1.5,3.6c0.1,0.2,0.3,0.4,0.6,0.4h4.8
			c0.7,0,0.9,0.1,0.6-0.6C203.6,716.7,198.1,704.4,197.3,702.5 M124.5,699.4h-4.8c-0.4,0-0.5,0.2-0.5,0.5v18.6
			c0,0.5,0.1,0.6,0.6,0.6h4.5c0.5,0,0.6-0.1,0.6-0.6v-18.6C125,699.6,124.9,699.4,124.5,699.4 M113.9,699.4H110
			c-0.5,0-0.6,0.2-0.6,0.6v14.8c0,0-7.8-12.1-8.8-13.7c-1.2-1.7-1.6-1.7-5-1.7h-4.4c-0.6,0-0.6,0.2-0.6,0.6v18.6
			c0,0.5,0.2,0.6,0.6,0.6h3.9c0.6,0,0.6-0.1,0.6-0.6V704c0,0,6.4,10.1,8.6,13.5c1.1,1.7,1.3,1.7,4.4,1.7h5.2c0.5,0,0.6-0.1,0.6-0.6
			V700C114.5,699.6,114.4,699.4,113.9,699.4 M229.9,699.4H226c-0.5,0-0.6,0.2-0.6,0.6v14.8c0,0-7.8-12.1-8.8-13.7
			c-1.2-1.8-1.6-1.7-5-1.7h-4.4c-0.6,0-0.6,0.2-0.6,0.6v18.6c0,0.5,0.1,0.6,0.6,0.6h3.9c0.6,0,0.6-0.1,0.6-0.6V704
			c0,0,6.4,10.1,8.6,13.5c1.1,1.7,1.3,1.7,4.4,1.7h5.2c0.5,0,0.6-0.1,0.6-0.6V700C230.5,699.6,230.4,699.4,229.9,699.4 M144.8,707.1
			c-1.9-0.2-7-0.6-8.6-0.8c-0.6-0.1-0.8-0.4-0.9-0.8V705v-0.4c0.1-0.6,0.3-0.8,1-0.8h13.9c0.5,0,0.6-0.1,0.6-0.6V700
			c0-0.5-0.2-0.6-0.6-0.6h-14c-3.6,0-5.7,1.3-6.3,4.1c-0.2,0.6-0.2,1.3-0.2,1.9c0,0.6,0.1,1.3,0.1,1.8c0.2,1.6,1.2,3.4,5.4,3.9
			c3.3,0.3,8.2,0.7,9.8,0.9c0.7,0.1,0.9,0.6,0.9,1v1.3c0,0.5-0.2,0.6-0.8,0.6h-14.6c-0.5,0-0.6,0.1-0.6,0.6v3.2
			c0,0.5,0.2,0.6,0.6,0.6H145c3.6,0,5.9-0.6,6.6-3.7c0.2-0.6,0.2-1.5,0.2-2.1c0-1-0.1-1.7-0.2-2.1
			C150.9,708,148.4,707.4,144.8,707.1 M170.3,707.1c-1.9-0.2-7-0.6-8.6-0.8c-0.6-0.1-0.8-0.4-0.9-0.8V705v-0.4
			c0.1-0.6,0.3-0.8,1-0.8h13.9c0.5,0,0.6-0.1,0.6-0.6V700c0-0.5-0.2-0.6-0.6-0.6h-14c-3.6,0-5.7,1.3-6.3,4.1
			c-0.2,0.6-0.2,1.3-0.2,1.9c0,0.6,0.1,1.3,0.1,1.8c0.2,1.6,1.2,3.4,5.4,3.9c3.3,0.3,8.2,0.7,9.8,0.9c0.7,0.1,0.9,0.6,0.9,1v1.3
			c0,0.5-0.2,0.6-0.8,0.6H156c-0.6,0-0.6,0.1-0.6,0.6v3.2c0,0.5,0.2,0.6,0.6,0.6h14.5c3.6,0,5.9-0.6,6.6-3.7
			c0.2-0.6,0.2-1.5,0.2-2.1c0-1-0.1-1.7-0.2-2.1C176.2,708,173.8,707.4,170.3,707.1"/>
		<g>
			<path class="st3" d="M456.6,709.2l10-14.7c0.4-0.6-0.1-1.2-0.9-1.2l-7.7-0.1c-0.6,0-1.7,0.7-2.2,1.4l-3.5,4.5l-4.9,6.4v-11
				c0-0.7-0.8-1.2-1.3-1.2h-8.9c-0.6,0-1.2,0.2-1.2,1.4c0,1.1,1.4,1.3,1.4,1.7v29.4c0,0.6,0.8,1.4,1.3,1.4h7.6c0.5,0,1-0.8,1-1.3
				v-12.2l4.9,6l5.1,6.3c0.4,0.5,1.2,1.2,2.1,1.2l8.3-0.1c0.8,0,0.7-1,0.5-1.2C464.4,720.2,460.5,714.7,456.6,709.2z M485.1,693.3
				h-8.8c-1,0-1.3,0.6-1.4,1.3c0.2,1.2,1.4,1.5,1.4,1.5v29.6c0,0.8,0.5,1.3,1.2,1.3h3.1h4.7c0.9,0,1.1-0.5,1.1-1.2v-31.2
				C486.4,693.8,485.7,693.3,485.1,693.3z"/>
			<path class="st3" d="M511.8,678.2c-9.3-2.4-19.8-3.7-30.9-3.7c-0.1,0-0.2,0-0.2,0c-10.1,0-19.7,1.1-28.3,3.1
				c-24.4,5.6-41.4,18-41.4,32.4s17,26.8,41.4,32.4c8.7,2,18.3,3.1,28.3,3.1h0.2c11.1,0,21.6-1.3,30.9-3.7
				c23.1-5.8,39.1-17.9,39.1-31.8C550.8,696,534.9,684,511.8,678.2L511.8,678.2z M511.8,734c-9.2,2.1-19.7,3.3-30.9,3.3
				c-0.1,0-0.2,0-0.2,0c-10.1,0-19.8-1-28.3-2.8c-21.5-4.5-36.3-13.8-36.3-24.6s14.8-20.1,36.3-24.6c8.6-1.8,18.2-2.8,28.3-2.8h0.2
				c11.2,0,21.7,1.2,30.9,3.3c20.2,4.6,34,13.7,34,24.1S532,729.4,511.8,734L511.8,734z"/>
			<path class="st3" d="M517.8,694.5c-0.3-0.7-0.8-1.3-1.4-1.3h-11.9c-0.4,0-1,0.3-1,0.9c0,1.7,1.7,1.6,1.7,1.9l-10,29.5
				c-0.2,0.5,0.3,1.4,0.9,1.4l7-0.1c0.6,0,1.5-0.5,1.7-1.3l3.3-9.9c1.1-3.3,2.2-6.6,3.3-9.9c0.1-0.1,0.2-0.2,0.4-0.2
				c0.3,0,0.6,0.1,0.6,0.3l6.5,19.8c0.1,0.4,1,1.2,1.5,1.2l7.3,0.1c0.4,0,0.9-0.8,0.8-1.2L517.8,694.5L517.8,694.5z"/>
		</g>
		<path class="st3" d="M769.4,745.2v-7.3h3.9v1.1h-2.5v1.9h2.4v1.1h-2.4v3.3L769.4,745.2L769.4,745.2z M829.8,745.2v-7.3h1.4v7.3
			H829.8z M847.6,737.8h4.6v1.1h-1.6v6.3h-1.4v-6.3h-1.6V737.8L847.6,737.8z M729.6,745.2v-7.3h1.4v7.3H729.6z M811.6,737.8h1.2v7.3
			h-1.6l-1.9-5.5v5.5h-1.1v-7.3h1.6l1.9,5.6l0,0L811.6,737.8z M868.2,745.2v-7.3h1.4v7.3H868.2z M789.7,745.2v-7.3h1.4v7.3H789.7z
			 M751.3,737.8h1.2v7.3h-1.6l-1.9-5.5v5.5h-1.1v-7.3h1.6l1.9,5.6l0,0L751.3,737.8L751.3,737.8z M799.6,675.1
			c-29.5,0-53.5,12.1-53.5,27c0,12.1,15.7,22.3,37.4,25.7l16.1-38.5l16.1,38.5c21.7-3.4,37.4-13.7,37.4-25.7
			C853.1,687.2,829.1,675.1,799.6,675.1z M824.2,715.6l-24.6-28.5l-24.5,28.4c-12-3.4-20-9.3-20-16.5c0-11.5,19.8-22.2,44.4-22.2
			c24.7,0,44.9,10.8,44.9,22.2C844.4,706.3,836.4,712.3,824.2,715.6L824.2,715.6z"/>
		<g>
			<path class="st3" d="M1159.2,741.7v3.7c0,1.1,0.3,1.3,1.3,1.3h6.6v2.6h-8.9c-1.8,0-2.7-0.9-2.7-2.7v-11.8c0-1.8,0.8-2.7,2.7-2.7
				h8.1v2.6h-5.9c-1.1,0-1.3,0.3-1.3,1.3v2.9h7.1v2.6h-7"/>
			<g>
				<g>
					<path class="st3" d="M1107,746.5c-0.1,0.2-0.2,0.2-0.4,0.2c-0.2,0-0.3-0.1-0.4-0.2l-3.8-14.4h-4.2l4.4,15.7
						c0.2,1,0.9,1.5,1.9,1.5h3.3c1,0,1.6-0.5,1.9-1.5l4.2-15.7h-3.2L1107,746.5z"/>
					<path class="st3" d="M1090.7,745.4v-3.7h7.1v-2.6h-7.1v-2.9c0-1,0.2-1.3,1.3-1.3h5.9v-2.6h-8.1c-1.9,0-2.7,0.9-2.7,2.7v11.8
						c0,1.8,0.9,2.7,2.7,2.7h8.9v-2.6h-6.6C1091.1,746.8,1090.7,746.5,1090.7,745.4z"/>
					<polygon class="st3" points="1081.4,739.1 1076.2,739.1 1076.2,732.2 1072.6,732.2 1072.6,749.4 1076.2,749.4 1076.2,741.7 
						1081.4,741.7 1081.4,741.7 1081.4,749.4 1085,749.4 1085,732.2 1081.4,732.2 					"/>
					<path class="st3" d="M1060.5,734.9v11.8c0,1.9,1,2.7,2.7,2.7h8v-2.6h-5.8l0,0c-1,0-1.3-0.2-1.3-1.3v-9.3c0-1,0.2-1.3,1.3-1.3
						h5.8v-2.6h-8C1061.4,732.2,1060.5,733.1,1060.5,734.9z"/>
					<path class="st3" d="M1124.4,742.1c1.7,0,2.7-0.8,2.7-2.7v-4.6c0-1.8-0.8-2.7-2.7-2.7h-10v17.3h3.6v-14.6h4.2
						c1.1,0,1.3,0.3,1.3,1.3v2.1c0,1-0.3,1.3-1.3,1.3h-2l0,0c-0.8,0-1.2,0.5-1.2,1.2c0,0.4,0.2,0.6,0.3,0.9l4.5,7.7h4.4l-4.8-7.3
						L1124.4,742.1z"/>
					<polygon class="st3" points="1167.2,732.2 1167.2,734.8 1172,734.8 1172,749.4 1175.6,749.4 1175.6,734.8 1175.6,734.8 
						1180.5,734.8 1180.5,732.2 					"/>
					<path class="st3" d="M1139.7,732.2h-7.9c-1.9,0-2.7,1-2.7,2.7v11.8c0,2,1,2.7,2.7,2.7h7.9c1.7,0,2.7-0.8,2.7-2.7v-11.8
						C1142.4,733.1,1141.6,732.2,1139.7,732.2z M1137.5,746.8h-3.5c-1,0-1.3-0.3-1.3-1.3v-9.3c0-0.9,0.1-1.3,1.3-1.3h3.5
						c0.9,0,1.3,0.2,1.3,1.3v9.3C1138.8,746.6,1138.5,746.8,1137.5,746.8z"/>
					<polygon class="st3" points="1148.2,732.2 1144.6,732.2 1144.6,749.4 1154.9,749.4 1154.9,746.8 1148.2,746.8 					"/>
				</g>
				<path class="st3" d="M1176.5,678.1h-33.8c-0.9,0-1.4-0.3-1.4-1.4v-5c0-1.4-0.8-2.2-2.2-2.2h-38.6c-1.4,0-2.2,0.8-2.2,2.2v5
					c0,1.1-0.5,1.4-1.4,1.4h-22.1c-1.7,0-2.7,0.8-3.2,1.9l-10.8,21c-0.1,0.3-0.2,0.6-0.2,0.9c0,0.8,0.5,1.9,2.1,1.9h34.2
					c1.1,0,1.4,0.5,1.4,1.4v5c0,1.5,0.9,2.2,2.2,2.2h38.6c1.3,0,2.2-0.6,2.2-2.2v-5c0-1,0.4-1.4,1.4-1.4h21.5c1.5,0,2.5-0.4,3.3-1.8
					l10.6-20.8c0.2-0.5,0.4-0.7,0.4-1.2C1178.6,678.5,1177.4,678.1,1176.5,678.1z M1168,686.4l-5.1,10c-0.3,0.6-0.9,0.6-1.3,0.6
					h-25.5c-1.1,0-1.4,0.5-1.4,1.4v5.8c0,1-0.4,1.4-1.4,1.4h-26.8c-0.9,0-1.4-0.3-1.4-1.4v-5.8c0-1.1-0.5-1.4-1.4-1.4h-31.2
					c-0.8,0-1.3-0.5-1.3-1.1c0-0.2,0-0.4,0.1-0.5l5.1-10c0.2-0.4,0.5-0.6,1.3-0.6h26c0.9,0,1.5-0.4,1.5-1.5v-5.8
					c0-1,0.4-1.4,1.4-1.4h26.8l0,0c1,0,1.4,0.4,1.4,1.5v5.8c0,1,0.5,1.4,1.5,1.4h30.7c1,0,1.3,0.6,1.3,1.2
					C1168.1,686.1,1168.1,686.3,1168,686.4z"/>
			</g>
		</g>
		<g>
			<path class="st3" d="M1387.1,713.6c4.5,0,3.9,4.8,4,5h-4.7c0,0,0-1.4-1.3-1.4h-9.4c-1.8,0-1.8,3.2-0.2,3.3c3,0.2,8,0.1,12.1,0.3
				c1.9,0.1,3.6,1.4,3.6,3.5c0,0.1,0.1,3.6,0.1,3.6c0,2.4-2,3.5-4.1,3.5h-13.4c-2.2,0-4.1-1.6-4.4-3.9c-0.1-0.5-0.1-1.1,0-1.6h4.7
				c0,0-0.1,2,1.9,2c3.5,0,5.5,0.1,8.7,0c2.4,0,2.8-3.5,0-3.7c-3.4-0.2-5.9-0.3-10.2-0.4c-2.9-0.1-5-1.2-5-3.5v-3.6
				c0-1.7,1.6-3,3.9-3L1387.1,713.6L1387.1,713.6z M1398.2,714.2c-0.1,0.1,0,7.1,0,12.4c0,0.8,0.5,1.4,1.4,1.4h9
				c1,0,1.2-0.8,1.2-1.4c0.1-4.7,0.1-12.1,0-12.2h5.1c0,0,0,8.8,0.1,13.6c0,2.1-1.8,3.5-4.3,3.5c-4.8,0.1-7.2,0-11.7,0
				c-3.1,0-5.8-0.9-5.9-3.5c0-5.4-0.2-13.5-0.1-13.6h5.2V714.2z M1432.9,714.3c4.7,0,5.2,3.5,5.2,4.5c0,2.8-2.4,4-2.5,4
				c0,0,2.8,1,2.8,3.8c0,1.5-0.2,4.8-5.5,4.8c-6.1,0.1-15.9,0-16,0v-17.1H1432.9z M1431.6,721.3c1,0,1.8-0.6,1.8-1.8
				c0-1.1-0.9-1.8-1.9-1.8c-3.4,0-9.3-0.1-9.4,0v3.6C1422.2,721.4,1427.9,721.3,1431.6,721.3L1431.6,721.3z M1431.7,727.9
				c1,0,2-0.6,2-1.8s-1-2-2.1-1.9c-3.1,0-9.4,0-9.5,0.1v3.7C1422.2,728,1427.6,727.9,1431.7,727.9L1431.7,727.9z M1447.5,714.3h6.3
				l9.2,17.1h-5.1l-1.8-3.5h-10.8l-1.9,3.5h-5.1L1447.5,714.3z M1450.5,718l-3.4,6.2h6.9L1450.5,718z M1478.9,717.7
				c1.3,0,2.1,1.5,2.1,2.7s-0.8,2.5-2.1,2.5c-3.7,0-9.3,0-9.4,0v-5.2C1469.7,717.6,1475.6,717.7,1478.9,717.7L1478.9,717.7z
				 M1469.5,726.1c0,0,6.2,0,9.2,0c1.3,0,2.4,1.4,2.4,2.6v2.7h4.6v-2.6c0-2.5-2.6-3.9-2.6-3.9c0.1,0,2.6-1.7,2.6-4.4
				c0-3.2-1.3-6.1-6-6.1h-15.2v17h5.1L1469.5,726.1L1469.5,726.1z M1492.6,714.2c-0.1,0.2,0.1,7.1,0.1,12.4c0,0.8,0.4,1.4,1.4,1.4
				h8.9c1,0,1.2-0.8,1.2-1.4c0.1-4.7,0.2-12.1,0.1-12.2h5.1c0,0,0,8.8,0.1,13.6c0,2.1-1.7,3.5-4.3,3.5c-4.9,0.1-7.3,0-11.7,0
				c-3.1,0-5.9-0.9-5.9-3.5c-0.1-5.4-0.1-13.5,0-13.6h5V714.2z"/>
			<path class="st3" d="M1440.7,680.1c-6.4,0-12.4,1.7-16.7,4.3c-4.5,2.7-7.3,6.2-7.3,9.8s2.8,7.1,7.3,9.7
				c4.4,2.6,10.3,4.3,16.8,4.3s12.5-1.7,16.9-4.2c4.5-2.6,7.3-6.2,7.3-9.7c0-3.6-2.8-7.1-7.3-9.8
				C1453.1,681.8,1447.2,680.1,1440.7,680.1L1440.7,680.1z M1423.6,683.8c4.5-2.7,10.5-4.4,17.1-4.4s12.7,1.7,17.2,4.4
				c4.7,2.8,7.7,6.6,7.7,10.4c0,3.8-3,7.6-7.7,10.3c-4.5,2.6-10.6,4.3-17.2,4.3s-12.7-1.7-17.1-4.4c-4.7-2.7-7.6-6.5-7.6-10.3
				C1415.9,690.4,1418.9,686.6,1423.6,683.8z"/>
			<path class="st3" d="M1434,688.9l11.2,2.4l-11.1,2.3l-2.4,6.1l-2.4-6.2l-10.2-2.2l10.2-2.2l2.3-5.8L1434,688.9L1434,688.9z
				 M1446.3,694.6l4.7,1l-4.7,1.1l-1,2.5l-1.1-2.7l-4.4-1l4.4-1l1-2.4L1446.3,694.6z M1457.8,694.6l4.7,1l-4.7,1.1l-1,2.5l-1.1-2.7
				l-4.3-1l4.3-1l1.1-2.4L1457.8,694.6z M1454.8,687.4l4.7,1l-4.7,1l-1,2.7l-1.1-2.7l-4.4-1l4.4-1l1-2.4L1454.8,687.4z
				 M1450.3,700.3l4.9,1.1l-4.7,1l-1.1,2.5l-1.1-2.5l-4.2-1l4.2-1l1.1-2.4L1450.3,700.3L1450.3,700.3z M1437.8,701.1l4.7,1.1l-4.7,1
				l-1,2.5l-1.1-2.7l-4.4-0.8l4.4-1l1-2.5L1437.8,701.1z"/>
		</g>
		<path class="st3" d="M1713.5,719c-1.7-1.1-3-4.8-3-9.2c0-0.2,0-0.3,0-0.5l0,0c-4.8-0.8-8.2-2.8-8.3-5.3l0,0
			c-1.2,1.5-1.8,3.1-1.8,4.9C1700.3,714.3,1706.1,718.6,1713.5,719L1713.5,719z M1698.1,709.4c0-5.9,7.3-10.7,16.4-10.7
			s16.4,4.8,16.4,10.7s-7.3,10.7-16.4,10.7S1698.1,715.3,1698.1,709.4L1698.1,709.4z M1714.5,700.2c1.8,0,3.2,2.7,3.8,6.4l0,0
			c3.4-0.5,5.8-1.8,5.8-3.2c0-1.9-4.3-3.5-9.6-3.5c-5.3,0-9.6,1.5-9.6,3.5c0,1.4,2.4,2.6,5.8,3.2l0,0
			C1711.3,702.9,1712.7,700.2,1714.5,700.2L1714.5,700.2z M1715.5,719c7.3-0.4,13.1-4.7,13.1-10c0-1.8-0.7-3.5-1.8-4.9l0,0
			c-0.1,2.4-3.5,4.5-8.3,5.3l0,0c0,0.2,0,0.3,0,0.5C1718.5,714.2,1717.2,717.9,1715.5,719L1715.5,719z M1714.5,706.9
			c0.8,0,1.5,0,2.3-0.1l0,0c-0.4-2.4-1.2-4.1-2.3-4.1s-1.9,1.7-2.3,4.1l0,0C1713,706.9,1713.7,706.9,1714.5,706.9L1714.5,706.9z
			 M1714.5,715.7c1.3,0,2.4-2.7,2.4-6.2l0,0c-1.6,0.2-3.3,0.2-4.9,0l0,0C1712.1,712.9,1713.2,715.7,1714.5,715.7z M1781.8,709.4
			c0-4.5,3.7-8.2,8.2-8.2s8.2,3.7,8.2,8.2s-3.7,8.2-8.2,8.2S1781.8,713.9,1781.8,709.4L1781.8,709.4z M1790,714.6
			c2.5,0,4.6-2.3,4.6-5.2s-2-5.2-4.6-5.2c-2.5,0-4.6,2.3-4.6,5.2S1787.5,714.6,1790,714.6z M1807.5,704.6v12.6h-3.4v-12.6l0,0h-4.8
			v-2.8h13.1v2.8H1807.5z M1816.4,713.7L1816.4,713.7l-1.3,3.5h-4l6.4-15.4h4.3l6.4,15.4h-4l-1.3-3.5l0,0H1816.4z M1819.6,711.1h2.2
			l0,0l-2.2-5.6l0,0l-2.2,5.6l0,0H1819.6z M1744,704.6v12.6h-3.4v-12.6l0,0h-4.8v-2.8h13.1v2.8H1744L1744,704.6z M1749.7,709.4
			c0-4.5,3.7-8.2,8.2-8.2s8.2,3.7,8.2,8.2s-3.7,8.2-8.2,8.2C1753.3,717.6,1749.7,713.9,1749.7,709.4z M1757.8,714.6
			c2.5,0,4.6-2.3,4.6-5.2s-2-5.2-4.6-5.2c-2.5,0-4.6,2.3-4.6,5.2C1753.3,712.3,1755.3,714.6,1757.8,714.6z M1773.9,717.2h1.7v-5.9
			l6-9.6h-4l-3.7,6.5l-3.7-6.5h-4l6,9.6v5.9H1773.9L1773.9,717.2z"/>
	</g>
</g>
<g id="Layer_2_1_">
	<g>
		<path class="st3" d="M336.2,248.1c-0.7,2.9-2.9,4.2-6.6,4.2c-2.5,0-4.7-0.5-5.9-1.6c-1.2-1.2-1.4-2.9-1.4-4.7v-8.7h2.8v8.6
			c0,1.9,0.2,3.1,0.9,3.9c0.9,1,2.3,1.3,3.6,1.3c2.7,0,4.4-0.9,4.9-3.2c0.1-0.5,0.2-1.2,0.2-2.2v-8.4h1.7v7.8
			C336.5,246.5,336.4,247.4,336.2,248.1"/>
		<path class="st4" d="M336.2,248.1c-0.7,2.9-2.9,4.2-6.6,4.2c-2.5,0-4.7-0.5-5.9-1.6c-1.2-1.2-1.4-2.9-1.4-4.7v-8.7h2.8v8.6
			c0,1.9,0.2,3.1,0.9,3.9c0.9,1,2.3,1.3,3.6,1.3c2.7,0,4.4-0.9,4.9-3.2c0.1-0.5,0.2-1.2,0.2-2.2v-8.4h1.7v7.8
			C336.5,246.5,336.4,247.4,336.2,248.1"/>
		<path class="st3" d="M350.5,240l-3.3,6.8h6.3L350.5,240 M355.9,251.9l-1.9-4.1h-7.3l-2,4.1h-1.8l7.3-14.7h1.7l7.2,14.7H355.9z"/>
		<path class="st4" d="M350.5,240l-3.3,6.8h6.3L350.5,240 M355.9,251.9l-1.9-4.1h-7.3l-2,4.1h-1.8l7.3-14.7h1.7l7.2,14.7H355.9z"/>
		<path class="st3" d="M283.5,240l-3.3,6.8h6.3L283.5,240 M288.9,251.9l-1.8-4.1h-7.3l-2,4.1H276l7.3-14.7h1.7l7.2,14.7H288.9z"/>
		<path class="st4" d="M283.5,240l-3.3,6.8h6.3L283.5,240 M288.9,251.9l-1.8-4.1h-7.3l-2,4.1H276l7.3-14.7h1.7l7.2,14.7H288.9z"/>
		<path class="st3" d="M307.6,252.3c-4.9,0-9.5-1.7-9.5-7.3c0-1.8,0.8-3.7,2-5.1c1.9-2.1,4.9-2.9,7.6-2.9c1.7,0,3.6,0.4,5.1,1.1v1.7
			c-1.4-1-3.2-1.7-4.9-1.7c-4,0-6.7,2.5-6.7,6.6c0,3.7,2.4,6.3,6.2,6.3c1,0,2.3-0.2,3.2-0.5v-5.4h2.8v6
			C311.7,251.9,309.4,252.3,307.6,252.3"/>
		<path class="st4" d="M307.6,252.3c-4.9,0-9.5-1.7-9.5-7.3c0-1.8,0.8-3.7,2-5.1c1.9-2.1,4.9-2.9,7.6-2.9c1.7,0,3.6,0.4,5.1,1.1v1.7
			c-1.4-1-3.2-1.7-4.9-1.7c-4,0-6.7,2.5-6.7,6.6c0,3.7,2.4,6.3,6.2,6.3c1,0,2.3-0.2,3.2-0.5v-5.4h2.8v6
			C311.7,251.9,309.4,252.3,307.6,252.3"/>
		<path class="st3" d="M371.2,238.3h-2.1v7h1.8c1.5,0,2.4-0.3,3.1-0.9s1.2-1.5,1.2-2.8C375.3,239.2,373.5,238.3,371.2,238.3
			 M376,251.9l-3.9-5.6h-2.9v5.6h-2.8v-14.7h5.3c2.2,0,4.3,0.3,5.5,1.6c0.6,0.7,1,1.7,1,2.9c0,2.3-1.7,3.6-3.2,4.2l4.3,6H376
			L376,251.9z"/>
		<path class="st4" d="M371.2,238.3h-2.1v7h1.8c1.5,0,2.4-0.3,3.1-0.9s1.2-1.5,1.2-2.8C375.3,239.2,373.5,238.3,371.2,238.3
			 M376,251.9l-3.9-5.6h-2.9v5.6h-2.8v-14.7h5.3c2.2,0,4.3,0.3,5.5,1.6c0.6,0.7,1,1.7,1,2.9c0,2.3-1.7,3.6-3.2,4.2l4.3,6H376
			L376,251.9z"/>
		<path class="st3" d="M264.1,255c-0.7,0.3-1.6,0.6-2.4,0.6c1.9-1.4,2.7-2.8,3-5.2c0.2-1.3,0.2-2.6,0.2-3.9v-9.2h2.8v11.1
			C267.7,251.1,266.7,253.7,264.1,255"/>
		<path class="st4" d="M264.1,255c-0.7,0.3-1.6,0.6-2.4,0.6c1.9-1.4,2.7-2.8,3-5.2c0.2-1.3,0.2-2.6,0.2-3.9v-9.2h2.8v11.1
			C267.7,251.1,266.7,253.7,264.1,255"/>
		<path class="st3" d="M281.8,198c1,0,1.9-0.3,1.9-0.4s-1.1-0.2-1.1-0.2c-1,0-1.4,0.4-1.4,0.5C281.1,197.9,281.4,198,281.8,198"/>
		<path class="st3" d="M275,199.7c0,0,0.1-0.2,0.1-0.3c0,0,0.2-0.5,0.9-0.6c0,0,0.4,0,0.8,0.1c0,0-0.2,0.6-1.2,0.7
			C275.5,199.7,275.1,199.7,275,199.7 M369.9,227.3c-0.2,0.6-1.3,1.4-2.5,1.8c-1.3,0.4-4,0.4-5.3,0c0,0-0.3-0.3-1.2-0.6
			c-2.2-0.7-3-1.1-4.1-2.2c-0.8-0.7-1.7-1.7-2.5-2.6c-0.4-0.4-1.3-1.3-2.9-1.6c-1.7-0.3-5.9-0.6-7.4-1.2c-1-0.4-2.3-1.1-3.8-3.4
			c-0.7-1.1-1.3-1.4-2.4-2.1c0,0,0.8,0.6,1.2,1.4c0.6,1.1,0.9,1.9,1.2,2.5c0.3,0.6,0.7,1.1,1.3,1.6c0.8,0.6,1.2,0.7,2.1,0.9
			c0.8,0.2,3.6,0.3,6,0.4s3.4,0.8,4.1,1.4s1.8,2.2,2.5,2.9c1,0.9,1,0.9,2.2,1.6c0.6,0.4,1.1,0.6,1.6,0.8c1.1,0.6,0.6,1.7,0.6,1.7
			c-0.3,0.9-1.4,1.2-2.7,1c-2-0.2-3.7-1.8-5.1-3c-0.8-0.6-1.1-1-2.6-2c-2.3-1.6-7.7-1.5-7.7-1.5h-4c-7.8,0.1-10.6-6.1-11.4-7.4
			c-0.3-0.5-0.5-0.8-0.8-1.1c-0.4-0.5-2.3-3-4.4-3.9c0,0,2,1.7,1.8,2.7c-0.4,0-0.9,0-1.5,0c-7.8,0.2-9.4-0.2-10.7-0.5
			c-1.2-0.2-3.3-0.9-5.3-1.8c0,0,0.2-1.9-0.6-3.5c0,0,6.4,2.3,11.6,1.6c0,0-8.3-0.4-13.4-4.5c0,0,1.3,4.3,0.3,6.2
			c0,0-1.4,3.3-8.3,1.1c0,0-3.2-1.2-5.7-1.2c0,0-1.9,0.1-2.1,1.1c0,0-0.1,0.5,0.4,0.7c0,0,0.5,0.2,0.3,0.6c-0.4,0.7-1,1.2-1.6,1.5
			c-1.9-0.1-1.8-1.7-1.8-1.7c0-0.6,0.2-1,0.4-1.3c1.2-2.7,5.5-3.1,5.5-3.1c4.6-0.5,9.3,0.6,9.3,0.6c-3.4-0.8-4.6-1.4-5.6-2.2
			c-1.3-1.1-2.5-4.8-2.5-4.8c-0.5,1.8,0.1,3.6,0.6,4.6c-0.6-1-1.6-1.9-2.4-2.6c-2.1-1.7-5.2-2.2-5.2-2.2c-0.9-0.2-1.2-1.1-1.2-1.1
			c-1.1-2.1-2.4-2.2-2.4-2.2c0.6,0.9,0.6,2,0.6,2c0,2.2-2.8,2.9-2.8,2.9c-2.1,2.1-2.5,2-2.9,2.1c-0.4,0-0.7-0.4-0.7-0.4
			c-0.1-0.2,0.1-0.4,0.1-0.4c0.4-0.2,0.7-0.5,0.7-0.5c2-1.6,2.3-2.5,2.2-3.6c-0.3-2.3-2.2-2.1-2.2-2.1c-0.9,0-1.3,0.7-1.3,0.7
			c-0.3,0.4-1.1,1.6-1.1,1.6c-0.6,1.1-1.2,0.9-1.2,0.9c-0.7,0-1.2-0.6-1.2-0.6s0-0.1-0.1-0.1c-0.5-0.6-0.1-1.3-0.1-1.3
			c0.9-1.5,2.4-1.7,2.6-1.7s0.9-0.1,0.9-0.1c1.7-0.1,2.8-1.7,2.8-1.7c-0.7-0.3-2-0.2-2-0.2c-1.2,0.1-1.6,1.4-1.6,1.4
			c-1.1,0.2-1-0.7-0.8-0.9c0.2-0.2,0.8-1.2,4.9-1.9c0,0,2.2-0.4,6.1,0c0.1,0,0.3,0.1,0.1,0.4c-0.5,0.6-2,1.8-4.5,1.2
			c0,0,0,1,2.6,1.5c0,0,2.4,0.5,6.3,3.7c0,0-1.9-3.5-5.2-4.6c0,0-0.2-0.2,0-0.4c0,0,1.6-1.4,4.3-1.2c0,0,9.1,0.5,14.2,5.8
			c0,0-0.2-0.9-1-2.2c0,0-0.2-0.2-0.1-0.3c0,0,0.1-0.2,1,0c0,0,3.2,0.5,10.8,3.3c0,0,5.6,2,8.7,3.3c4.6,1.9,16.2,6.6,23.5,10.7
			c1.3,0.7,6.8,3.4,6.8,3.4c4.1,2.5,7.8,4.4,7.8,4.4c3.7,1.7,6.4,0.9,6.4,0.9c0.9-0.3,2.5-1.2,3.1-0.6
			C370,226.4,370.1,226.9,369.9,227.3L369.9,227.3z M370.8,225.8c-0.5-1.1-2-0.8-2-0.8c-0.7,0-1.6,0.8-2.9,1
			c-2.7,0.6-4.7-0.4-4.7-0.4c-3.9-1.8-6.6-3.7-8.4-4.7c-1.7-1-8.2-4.4-14.6-7.6c0,0-7.4-3.8-18.3-8.3c0,0-21-9.5-36.2-9.5
			c0,0-7.8-0.1-10.5,2.9c0,0-0.5,0.4-0.2,0.9c0,0,0,0.1-0.1,0.2c0,0-1.2,0.8-2.1,1.9c0,0-0.5,0.5-0.1,1.3c0,0,0.5,0.9,0.8,1.3
			s1,1,2,0.9c0.4,0,0.4-0.2,0.4-0.2c0.5,0.5,1.2,0.5,1.2,0.5c-0.1-0.3-0.4-0.8-0.4-1.2c0-0.4,0.1-0.7,0.1-0.7
			c0.2-0.4,0.5-0.9,0.8-1.1s1-0.4,1.5-0.1c0.4,0.3,0.9,1.2,0.4,2.4c0,0-0.6,1-1.1,1.1h-0.1c-0.3,0-1-0.4-1-0.4s0,0.1,0,0.4
			c0,0.2,0.1,0.4,0.2,0.6l-0.1,0.1c0,0-0.4,0.3-0.2,0.8c0,0,0.4,1.5,1.5,1.5c1,0,1.8-0.9,1.8-0.9c2.1-2.3,5.2-2.6,5.2-2.6
			c3.4-0.2,8.1,3.2,9.5,4.2c-5-0.1-7,1.9-7,1.9c-2.8,2.2-1.7,4.8-1.7,4.8c0.2,0.6,0.8,1,1.1,1.1c0.5,0.2,1,0.2,1.4,0.2
			c0.3,0,0.6-0.1,0.8-0.3c0.4-0.2,1.1-0.7,1.4-1.1c0.2-0.2,0.4-0.8,0.3-1.4c0,0-0.1-0.4,0.3-0.5c0,0,1.3-0.3,4,0.8
			c0,0,2.9,1.7,6.6,2c0,0,4.3,0.4,5.3-1.9c0,0,2.4,1,6,1.4c0,0,3.5,0.4,9.2-0.1c1.1-0.1,2.4,0,2.4,0c1.8,0.2,3,1.2,3.4,1.9
			c1.9,3,4.1,8.9,13.1,8.7l4.1-0.1c2.5,0,4.5,0,6.5,1.1c0.9,0.5,3.2,2.7,4.6,3.5c4.2,2.8,6.6,1.5,6.6,1.5c1.4-0.8,1.3-2.3,1-3.1
			c-0.4-0.1,5.2,0.8,7.6-2.3C370.8,226.9,370.9,226.2,370.8,225.8L370.8,225.8z"/>
	</g>
	<g>
		<polygon class="st3" points="643.7,248.3 646.6,248.3 645.1,244.8 		"/>
		<path class="st3" d="M657.7,245.5c0-0.4-0.3-0.7-0.6-0.7h-3v1.4h3C657.4,246.2,657.7,245.8,657.7,245.5z"/>
		<polygon class="st3" points="633.2,248.3 636.1,248.3 634.7,244.8 		"/>
		<path class="st3" d="M657.3,248.2L657.3,248.2h-3.2v1.3h3.2c0.4,0,0.6-0.3,0.6-0.7C657.9,248.5,657.6,248.2,657.3,248.2z"/>
		<path class="st3" d="M640.5,194.4c-19.3,0-35,15.7-35,35s15.7,35,35,35s35-15.7,35-35S659.8,194.4,640.5,194.4z M630.2,209.3
			c0.9,0,2,0.4,3.1,1c0.1-0.8,0.6-1.6,1.2-2l-4-9.5c1.7,0,3.4,0.7,3.4,2.1c0,0.4-0.1,0.9-0.5,1.4c0,0.1,0,0.1,0.1,0.1h0.1
			c0.3-0.4,0.7-0.6,1.1-0.6c0.9,0,1.6,0.8,1.6,1.6c0,0.9-0.7,1.6-1.6,1.6c-0.1,0-0.2,0-0.3-0.1c0.1,0.4,1.2,1,2.5,1
			c1.1,0,2.2-0.4,2.8-1.6c-0.2,0.1-0.6,0.3-0.9,0.3c-0.9,0-1.6-0.7-1.6-1.6c0-0.8,0.7-1.6,1.6-1.6c0.3,0,0.6,0.1,0.8,0.3
			c-0.3-0.3-0.5-0.7-0.5-1.2c0-0.8,0.7-1.5,1.6-1.5c0.8,0,1.5,0.7,1.5,1.5c0,0.4-0.1,0.8-0.4,1.1c0.2-0.1,0.5-0.2,0.8-0.2
			c0.8,0,1.5,0.8,1.5,1.6c0,0.9-0.7,1.6-1.5,1.6c-0.4,0-0.8-0.1-1.1-0.4c0.2,0.7,1.4,1.8,2.9,1.8c0.8,0,1.7-0.3,2.5-1.1
			c-0.1,0.1-0.2,0.1-0.3,0.1c-0.9,0-1.6-0.7-1.6-1.6c0-0.8,0.7-1.6,1.6-1.6c0.4,0,0.8,0.2,1.1,0.6h0.1c0.1,0,0.1,0,0.1-0.1
			c-0.4-0.5-0.6-1-0.6-1.4c0-1.4,1.7-2.1,3.4-2.1l-3.9,9.4c0.2,0.3,0.5,0.6,0.7,0.9c0.8-0.4,1.7-0.4,2.2-0.4c0.6,0,1,0.1,1.1,0.1
			c0,0,0.4,0.1,0.6,0.2c-0.6,1.3-1,2-1.4,2.8c2,2,2.8,4.7,2.4,8.1c-0.6-0.4-1.7-0.9-2.4-1.1c1.1,1.7,1.4,3.1,1.4,4.8
			c0,1.2-0.2,2.5-0.7,3.6l-0.4,0.9c-0.6-0.9-1.1-1.5-1.8-2.1c0.1,0.6,0.4,1.8,0.4,2.6c0,2.2-0.8,4.2-2.9,5.5c-0.4-1.1-1.3-2.6-2-3.6
			c0.1,2.1,0,4.4-0.8,6c-1.5,2-3.7,3.3-7,4.1c0.6-1.4,1.1-5.1,0.8-9.5c-0.6,1-1.4,2.9-1.7,5.3c-0.8-0.6-3.2-2.5-3.2-5.7
			c0-1.3,0.4-2.6,1.3-3.9c-1.2,0.4-2,1.3-2.7,2.8c-0.3-2.2,0.1-4.8,1.3-6.5c-2.9-0.1-3.8-1.8-3.6-4.4c0.9,0.7,1.8,1.2,3,1.2
			s2.7-0.5,4.3-2.5c-0.7-0.4-1.4-0.6-1.8-0.8c-0.6-0.1-1.5-0.4-2.4-1.5c-0.4-0.4-0.8-0.6-1.5-0.6c-0.8,0-2,0.3-3.9,1.2
			C626,210.8,628.3,209.3,630.2,209.3z M622.1,214.7c0.7,0.7,1.8,1.9,3.6,1.9s3.1-0.6,4.3-0.6c0.9,0,2.5,0.5,3.2,2.1
			c-0.4-0.4-1.2-0.8-2.6-0.8c-0.9,0-2.7,1-4.1,1C624.1,218.3,622.8,216.4,622.1,214.7L622.1,214.7L622.1,214.7L622.1,214.7z
			 M659.4,252.1H648l-0.6-1.5h-4.6l-0.6,1.5h-4.5l-0.6-1.5h-4.7l-0.6,1.5h-3.6l0.4-0.8c-0.6,0.5-1.5,1.1-4.8,1.1
			c-3.2,0-5.9-0.6-6-3.2h4.1c0,0.6,0.4,1.3,1.8,1.3c1.6,0,1.8-0.6,1.8-0.9c0-0.6-0.4-1.1-2.4-1.1c-2.9,0-4.9-0.5-4.9-2.8
			c0-2.7,3-3.2,5.5-3.2c3,0,5.8,0.5,5.8,3.1h-4.1c0-1.1-0.7-1.3-1.7-1.3c-0.9,0-1.5,0.3-1.5,0.9c0,0.7,0.5,0.9,2,0.9
			c3.7,0,5.3,0.7,5.6,2.4l2.4-5.9h5.3l2.6,6.3l2.6-6.3h5.3l2.9,7v-7h8.4c2.1,0,2.7,1.5,2.7,2.4c0,0.8-0.4,2-2,2.2
			c1.8,0.2,2.2,1.6,2.2,2.5C662,250.5,661.3,252.1,659.4,252.1z"/>
	</g>
	<g>
		<path class="st3" d="M951.2,210.5c0.6-1.8,2-0.9,2-0.9s3.7,2.8,13.7,9.2c10,6.4,22.5-2.5,22.5-2.5l-29.7-21.1
			C946.7,209,930,214,930,214l0,0l38,26.6c-0.6,1.8-2,0.9-2,0.9s-3.7-2.8-13.7-9.2c-10-6.4-22.5,2.5-22.5,2.5l29.7,21.1
			c13-13.8,29.7-18.8,29.7-18.8l0,0L951.2,210.5L951.2,210.5z"/>
		<g>
			<path class="st3" d="M929.5,264.3h4.6c0.1,0.4,0,0.4,0.2,0.7c0.4,0.4,1,0.4,1.4,0.3s1-0.2,1.1-0.7c0-0.5-0.3-0.7-0.8-0.8
				c-0.6-0.1-1.3-0.1-2-0.2c-1.7-0.3-2.6-0.4-3.3-0.8c-0.7-0.5-0.8-1.4-0.8-2.1c0-0.5,0.2-0.9,0.5-1.3c0.4-0.4,0.9-0.7,1.7-1
				c0.7-0.2,1.7-0.4,3-0.4c1.6,0,2.8,0.2,3.6,0.6s1.3,1.4,1.5,2.3h-3.9c0-0.1-0.1-0.3-0.1-0.4c-0.1-0.5-0.7-0.7-1.2-0.8
				c-0.4-0.1-0.9-0.1-1.2,0.1c-0.2,0.1-0.4,0.3-0.4,0.5c0,0.1,0.1,0.3,0.3,0.4s0.6,0.2,1.3,0.3c1.7,0.3,2.9,0.5,3.6,0.8
				c0.7,0.3,1.2,0.6,1.6,1c0.3,0.4,0.5,0.8,0.5,1.3c0,0.6-0.2,1.1-0.7,1.6c-0.4,0.5-1,0.9-1.8,1.1c-0.8,0.3-1.8,0.4-3,0.4
				c-2.1,0-3.5-0.3-4.3-0.9C930.1,265.8,929.6,265.2,929.5,264.3z M948,258.1h3.4v6.3c0,1.3-0.8,2.2-2.4,2.8
				c-0.7,0.2-1.6,0.3-2.7,0.3c-0.9,0-1.7,0-2.5-0.2c-1.8-0.7-2.7-1.7-2.7-2.8v-6.3h3.4v5.4c0,1,0.1,1.7,1.8,1.7s1.7-0.8,1.7-1.8
				V258.1L948,258.1z M970.1,258.1h3.4v6.3c0,1.3-0.8,2.2-2.4,2.8c-0.7,0.2-1.6,0.3-2.7,0.3c-0.9,0-1.7,0-2.5-0.2
				c-1.8-0.7-2.7-1.7-2.7-2.8v-6.3h3.4v5.4c0,1,0.1,1.7,1.8,1.7s1.7-0.8,1.7-1.8V258.1L970.1,258.1z M952.1,258.2h10.5v2l-5.1,4.6
				h5.1v2.6h-10.5v-2.2l5-4.5h-5V258.2L952.1,258.2z M974.3,267.3v-9.1h3.4v3.4l3.6-3.4h4.2l-4.8,4.4l5,4.7h-4.5l-3.5-3.3v3.3H974.3
				z M989.5,258.2v9.1h-3.3v-9.1H989.5L989.5,258.2L989.5,258.2z"/>
		</g>
	</g>
	<g>
		<path class="st3" d="M1304.3,245.1h-9.8v14.3h9.8c1.7,0,3.1-1,3.1-3.5v-7.8C1307.4,246.7,1307,245,1304.3,245.1z M1304.3,255.3
			c0,0.6-0.1,1.3-1.3,1.4h-5.4v-9h5.4c0.8,0,1.3,0.5,1.3,1.3V255.3z"/>
		<path class="st3" d="M1230.9,245h3.1v5.7h7V245h3.1v14.4h-3.1v-5.9h-7v5.9h-3.1V245z M1249.4,245l3.9,5.9l3.9-5.9h3.8l-6.1,9.2
			v5.2h-3.1v-5.2l-6.1-9.2H1249.4z M1278.5,245h10.1c1.4,0,2.8,0.2,2.8,3.1v11.3h-3.1v-10.2c0-1.2-0.1-1.5-1.1-1.5h-5.5v11.7h-3.1
			V245H1278.5z M1327,245.1h3.1v14.3h-3.1V245.1z M1262.6,259.4h10.1c2,0,2.8-0.6,2.8-3.5V245h-3.1v10.2c0,1.2-0.1,1.4-1.1,1.4h-5.5
			V245h-3.1L1262.6,259.4L1262.6,259.4z"/>
		<path class="st3" d="M1317.6,219.3c0.6-6.4-5.1-11.2-10.1-14c-1.9-1-3.8-1.8-5.8-2.5c-8.9-3-19.3-4.1-29.2-2.9
			c-9.1,1.3-18,3.4-24.9,9.7c-3.3,3.1-5.3,7.7-3.7,12.2c2.1,5.4,7.8,9,12.8,11.1c14.9,6,35.2,5.8,49.7-1.1
			C1311.3,229.3,1316.9,225.2,1317.6,219.3z M1274.1,207.9c1.3-2.4,3.5-5.3,6.5-5.3c6.6,0,12.8,0.9,18.7,2.6c0.4,0.2,0.8,0.3,1,0.6
			c0.2,0.4-0.2,0.7-0.4,0.9c-4.9,3.8-10.5,5.9-16.2,7.8c-2.9,0.7-5.8,2-9.1,1.3c-0.8-0.2-1.5-0.7-1.9-1.4
			C1272,212.1,1273.1,209.8,1274.1,207.9z M1254.3,227.7c-0.8,0.7-1.5-0.2-2.2-0.5c-3.4-2.3-6.6-5.9-5.7-10.3
			c1.4-5.7,7.3-8.7,12.1-10.7c2.9-1.1,5.9-1.9,9-2.5c0.3,0,0.8,0,0.9,0.3l0,0l-0.1,0.4C1262.3,211.4,1258.2,219.6,1254.3,227.7z
			 M1286,230.4c-1.4,2.2-3.7,4.1-6.6,3.8c-6.1-0.1-12.3-1-18.1-2.8c-0.3-0.1-0.5-0.2-0.7-0.5c-0.1-0.3,0-0.6,0.3-0.8
			c5.2-4.2,11.4-6.2,17.5-8.2c2.3-0.7,4.7-1.4,7.3-1c1.1,0.1,2.1,0.9,2.5,1.9C1288.8,225.6,1287.3,228.1,1286,230.4z M1301.5,230.8
			c-2.8,0.9-5.5,1.9-8.6,2.1c-0.2,0-0.5,0-0.5-0.3l0.1-0.3c4.3-4.8,7.5-10.3,10.4-15.7c1.3-2.5,2.5-5,3.7-7.5
			c0.1-0.2,0.3-0.3,0.5-0.4c1.1,0.1,1.8,0.9,2.7,1.5c2.9,2.4,5.6,5.7,4.7,9.6C1312.9,225.7,1306.6,228.8,1301.5,230.8z"/>
		<path class="st3" d="M1313.7,245c-2.3,0-3.1,1.1-3.1,3.1v11.3h3.1v-4.1h7.1v4.1h3.1v-14.3l0,0h-10.2V245z M1320.8,252.5h-7.1v-3.3
			c0-1.2,0.3-1.4,1.3-1.5h5.9l0,0v4.8H1320.8z"/>
	</g>
	<g>
		<path class="st5" d="M1605.2,218.2h-9.4c0.1-0.8-0.1-1.5-0.5-2.1c-0.6-0.6-1.5-1-2.5-1h-36.6c-0.6-0.1-0.8,0.2-0.6,0.8l1.2,1.9
			c0.1,0.1,0.2,0.2,0.6,0.2h0.7l0.1,0.5l1.2,1.8c0.1,0.2,0.4,0.4,0.7,0.2h0.6l1,1.9c0,0.1,0.4,0.2,1.1,0.5l15.9,4.4l1.1,1.9
			c0.1,0.4,0.5,0.7,1,0.8l15,3.9l4.7-4l4.7,4l15-3.9c0.5-0.1,0.8-0.5,1-0.8l1.1-1.9l15.9-4.4c0.7-0.2,1.1-0.4,1.1-0.5l1-1.9h0.6
			c0.4,0.1,0.6,0,0.7-0.2l1.2-1.8l0.1-0.5h0.7c0.4,0,0.5-0.1,0.6-0.2l1.2-1.9c0.2-0.6,0-1-0.6-0.8h-36.6c-1.2,0-2.1,0.4-2.5,1
			C1605.3,216.8,1605.1,217.4,1605.2,218.2L1605.2,218.2z M1562.5,223.1l20.5-1.9 M1569.9,225.1l12.2-2.8 M1575,226.6l7.9-3.3
			 M1578.7,227.7l5.2-3.3 M1579.9,229.8l5.6-4.2 M1583.2,230.9l3.9-4.2 M1586.2,231.7l2.7-3.9 M1589.2,232.5l1.7-3.9 M1592.5,233.4
			l0.7-4 M1595.8,234v-3.9 M1600.5,230.2v-7 M1638.5,223.1l-20.6-1.9 M1631.2,225.1l-12.5-2.8 M1626,226.6l-8-3.4 M1622.3,227.7
			l-5.2-3.3 M1621.1,229.8l-5.6-4.2 M1617.8,230.9l-4-4.4 M1614.8,231.7l-2.8-3.9 M1611.8,232.5l-1.7-3.9 M1608.5,233.4l-0.7-4
			 M1605.2,234.2v-4.1 M1640.8,220.8l-22.9-1.1 M1584.8,224.9l1.2-1.6 M1586.2,226.1l1.9-2.9 M1587.9,227.3l2.1-4 M1589.8,228.2
			l2.1-4.8 M1592.1,229.2l2.1-5.8 M1594.9,230l1.3-6.7 M1597.6,230.5l0.6-7.1 M1616.2,224.9l-1.2-1.6 M1614.8,226.1l-1.8-2.8
			 M1613.1,227.3l-2.1-4 M1611.2,228.2l-2.2-4.8 M1608.9,229.2l-2.1-5.8 M1606.1,230l-1.3-6.7 M1603.4,230.5l-0.6-7.1 M1643.6,218.2
			h-38.4 M1560.2,220.8l22.8-1.1 M1557.4,218.2h38.4"/>
		<path class="st6" d="M1577.4,215.1c1.9,4.6,5,8.2,9.1,11c4.2,2.9,9,4.4,14,4.4c5.1,0,9.7-1.5,13.9-4.2c2.1-1.3,3.8-3,5.3-4.8
			c1.6-1.8,2.8-3.9,3.8-6.2"/>
		<path class="st3" d="M1570.6,237.2l2.8,6.4h-1l-1-2.4h-2.3l-1,2.4h-0.6l2.8-6.4H1570.6L1570.6,237.2z M1571.3,240.7l-1.1-2.3
			l-1,2.3H1571.3L1571.3,240.7z M1577,243.1c-0.4,0.4-1,0.6-1.6,0.6l-0.8-0.1l-0.6-0.5l0.1-0.7h0.1c0.4,0.6,0.8,1,1.5,1
			c0.4,0,0.6-0.1,0.8-0.5c0.2-0.2,0.4-0.6,0.4-1s-0.1-0.6-0.4-0.8l-1-0.5c-0.5-0.1-0.8-0.4-1-0.5c-0.4-0.4-0.5-0.7-0.5-1.1
			c0-0.6,0.2-1,0.6-1.3s0.7-0.5,1.3-0.5c0.6,0,1,0.1,1.3,0.5l-0.2,0.7c-0.2-0.6-0.6-0.8-1.2-0.8c-0.4,0-0.6,0.1-0.7,0.4
			c-0.2,0.1-0.4,0.4-0.4,0.7s0.1,0.7,0.4,1l1.1,0.4c0.4,0.2,0.7,0.5,1,0.6c0.2,0.2,0.4,0.6,0.4,1.1
			C1577.6,242.2,1577.4,242.7,1577,243.1L1577,243.1z M1582.9,237.6l0.1,0.4l-1.9-0.1v5.8h-0.8v-5.8l-2.1,0.1l0.1-0.4l-0.1-0.2h4.8
			L1582.9,237.6L1582.9,237.6z M1584.9,242.6c0.5,0.5,1.1,0.7,1.7,0.7c0.8,0,1.6-0.4,2.1-1.1c0.4-0.6,0.6-1.2,0.5-1.8
			c0-0.8-0.1-1.6-0.5-2.1c-0.5-0.6-1.1-1-1.9-1s-1.5,0.4-1.9,1c-0.4,0.7-0.6,1.4-0.6,2.2C1584.2,241.4,1584.4,242.2,1584.9,242.6z
			 M1583.2,240.5c0-1,0.4-1.8,1-2.4s1.5-0.8,2.4-0.8c1,0,1.8,0.2,2.4,0.7c0.7,0.6,1.1,1.3,1.1,2.4s-0.4,1.8-1,2.4s-1.5,1-2.5,1
			s-1.8-0.2-2.4-0.8C1583.6,242.3,1583.2,241.4,1583.2,240.5z M1596.7,243.6h-0.4l-4.4-5h-0.1v5h-0.5v-6.3h0.4l4.4,4.7v-4.7h0.6
			V243.6z M1601.6,237.3c1.1,2.1,1.9,3.6,2.7,4.8l2.7-4.8h0.1l0.7,6.3h-0.8l-0.5-4.7c-1.1,2.1-1.9,3.6-2.3,4.6h-0.1l-0.6-1l-1.8-3.6
			l-0.4,4.7h-0.7L1601.6,237.3L1601.6,237.3z M1613.8,243.6h-0.5l-1-2.4h-2.4l-0.8,2.4h-0.7l2.9-6.4h0.2l2.7,6.4H1613.8
			L1613.8,243.6z M1612.1,240.7l-1-2.3l-1,2.3H1612.1L1612.1,240.7z M1616,237.7v2.5l1.2-0.1c0.4-0.1,0.6-0.2,0.8-0.4l0.4-0.8
			c0-0.7-0.4-1.1-1.1-1.2H1616L1616,237.7L1616,237.7z M1617.2,237.3c1.3,0,1.9,0.5,1.9,1.5c0,0.5-0.2,0.8-0.6,1.2
			c-0.4,0.2-0.7,0.4-1.2,0.5l2.4,3.1h-1l-2.4-3h-0.4v3h-0.7v-6.3L1617.2,237.3L1617.2,237.3L1617.2,237.3z M1621.8,243.6v-5.8
			l-1.9,0.1v-0.6h4.6v0.6l-1.8-0.1v5.8H1621.8z M1626.4,237.3v6.3h-0.8v-6.3H1626.4z M1633.5,243.6h-0.4l-4.4-5h-0.1v5h-0.5v-6.3
			h0.2l4.5,4.7v-4.7h0.6L1633.5,243.6L1633.5,243.6L1633.5,243.6z"/>
		<g>
			<polygon class="st7" points="1605.2,220.9 1606.2,220.9 1605.7,219.8 			"/>
			<path class="st7" d="M1594.4,219.8c-0.2-0.3-0.5-0.5-1-0.5s-0.7,0.2-1,0.5c-0.2,0.3-0.3,0.7-0.3,1.1s0.1,0.8,0.4,1l0,0
				c0.2,0.2,0.5,0.4,0.9,0.4s0.8-0.2,1-0.5s0.3-0.6,0.2-0.9C1594.6,220.4,1594.6,220,1594.4,219.8z"/>
			<polygon class="st7" points="1584.7,220.9 1585.7,220.9 1585.2,219.8 			"/>
			<path class="st7" d="M1609.3,220c0-0.4-0.2-0.5-0.5-0.6h-0.7v1.3l0.6-0.1c0.2-0.1,0.3-0.1,0.4-0.2L1609.3,220z"/>
			<path class="st7" d="M1582.9,218.2v5h35v-5H1582.9z M1586.2,222.4l-0.5-1.2h-1.2l-0.5,1.2h-0.3l1.4-3.2h0.1l1.4,3.2H1586.2z
				 M1588.6,222.1c-0.2,0.2-0.5,0.3-0.8,0.3l-0.4-0.1l-0.3-0.2l0.1-0.4h0.1c0.2,0.3,0.4,0.5,0.7,0.5c0.2,0,0.3-0.1,0.4-0.2
				s0.2-0.3,0.2-0.5s-0.1-0.3-0.2-0.4l-0.5-0.2c-0.2-0.1-0.4-0.2-0.5-0.2c-0.2-0.2-0.2-0.4-0.2-0.5c0-0.3,0.1-0.5,0.3-0.7
				c0.2-0.2,0.4-0.2,0.7-0.2s0.5,0.1,0.7,0.2l-0.1,0.4c-0.1-0.3-0.3-0.4-0.6-0.4c-0.2,0-0.3,0.1-0.4,0.2s-0.2,0.2-0.2,0.4
				c0,0.2,0.1,0.4,0.2,0.5l0.5,0.2c0.2,0.1,0.4,0.2,0.5,0.3c0.1,0.1,0.2,0.3,0.2,0.5C1588.9,221.7,1588.7,221.9,1588.6,222.1
				L1588.6,222.1z M1590.6,219.5v2.9h-0.4v-2.9l-1,0.1l0.1-0.2l-0.1-0.1h2.4l-0.1,0.1l0,0l0.1,0.2L1590.6,219.5z M1594.6,221.9
				c-0.3,0.3-0.7,0.5-1.3,0.5c-0.5,0-0.9-0.1-1.2-0.4c-0.3-0.3-0.5-0.7-0.5-1.2l0,0l0,0l0,0c0-0.5,0.2-0.9,0.5-1.2
				c0.3-0.3,0.7-0.4,1.2-0.4s0.9,0.1,1.2,0.4c0.4,0.3,0.5,0.7,0.5,1.2C1595.1,221.3,1594.9,221.6,1594.6,221.9z M1598.3,222.4
				l-2.2-2.5h-0.1v2.5h-0.2v-3.2h0.2l2.2,2.4v-2.4h0.3v3.2H1598.3z M1603.6,222.4l-0.2-2.4c-0.5,1-1,1.8-1.2,2.3h-0.1l-0.3-0.5
				l-0.9-1.8l-0.2,2.4h-0.4l0.5-3.2h0.1l0,0c0.5,1,1,1.8,1.3,2.4l1.3-2.4h0.1l0.4,3.2H1603.6z M1607,222.4L1607,222.4h-0.2l-0.5-1.2
				h-1.2l-0.4,1.2h-0.4l1.5-3.2h0.1l1.3,3.2H1607z M1609.5,222.4l-1.2-1.5h-0.2v1.5h-0.4v-3.2h1l0,0l0,0c0.7,0,1,0.2,1,0.7
				c0,0.2-0.1,0.4-0.3,0.6c-0.2,0.1-0.4,0.2-0.6,0.2l1.2,1.6L1609.5,222.4L1609.5,222.4z M1612.4,219.5l-0.9-0.1v2.9h-0.4v-2.9
				l-1,0.1v-0.3h2.3V219.5z M1613.3,222.4h-0.4v-3.2h0.4V222.4z M1616.9,222.4h-0.2l-2.2-2.5h-0.1v2.5h-0.2v-3.2h0.1l2.2,2.4v-2.4
				h0.3L1616.9,222.4L1616.9,222.4z"/>
		</g>
	</g>
	<g>
		<path class="st3" d="M289.2,542.5h-12.1c-1.4,0-2.4,0.9-2.4,2.3v4.5c0,1.4,1,2.3,2.4,2.3h12.1c1.4,0,2.4-0.9,2.4-2.3v-4.5
			C291.6,543.3,290.6,542.5,289.2,542.5z M289.6,548.7c0,0.7-0.5,1-1.2,1H278c-0.6,0-1.2-0.3-1.2-1v-3.4c0-0.7,0.5-1,1.2-1h10.5
			c0.7,0,1.2,0.3,1.2,1V548.7z"/>
		<path class="st3" d="M327,546.1h-11.2c-0.5,0-0.8-0.4-0.8-0.9c0-0.5,0.2-0.9,0.8-0.9h13.8v-1.8h-13.8c-1.8,0-2.8,1-2.8,2.8
			c0,1.4,0.9,2.6,2.4,2.6H327c0.6,0,0.7,0.5,0.7,1c0,0.4-0.2,0.8-0.7,0.8h-13.8v1.8h14.1c1.6,0,2.5-1.1,2.5-2.7
			C329.8,547,328.8,546.1,327,546.1z"/>
		<polygon class="st3" points="385.7,544.3 385.7,542.5 368.7,542.5 368.7,551.5 385.7,551.5 385.7,549.7 370.8,549.7 370.8,547.8 
			385.7,547.8 385.7,546 370.8,546 370.8,544.3 		"/>
		<path class="st3" d="M332,545.1v3.9c0,1.5,1,2.5,2.5,2.5h13.6v-1.8h-13.6c-0.3,0-0.4-0.2-0.4-0.4v-4.4c0-0.3,0.1-0.6,0.4-0.6h13.6
			v-1.8h-13.6C332.7,542.5,332,543.4,332,545.1z"/>
		<polygon class="st3" points="364.4,546 352.4,546 352.4,542.5 350.3,542.5 350.3,551.5 352.4,551.5 352.4,547.8 364.4,547.8 
			364.4,551.5 366.5,551.5 366.5,542.5 364.4,542.5 		"/>
		<path class="st3" d="M270.5,542.5h-14.8v9.1h2.1v-2.7H270c1.6,0,2.6-1.2,2.6-2.7v-1C272.6,543.8,271.9,542.5,270.5,542.5z
			 M270.5,546.3c0,0.6-0.4,0.8-1,0.8h-11.8v-2.8h11.8c0.6,0,1,0.4,1,1V546.3z"/>
		<path class="st3" d="M310.8,546.6v-2.4c0-1.1-1-1.8-2-1.8h-14.9v9.1h2.1v-2.7h10.6c1.6,0,2.2,1.3,2.2,2.7h2
			c-0.1-1.3-0.4-2.6-1.6-3.2C310,548.1,310.8,547.6,310.8,546.6z M308.7,546.4c0,0.3-0.1,0.7-0.5,0.7h-12.3v-2.8l0,0v0h12
			c0.6,0,0.8,0.3,0.8,0.8V546.4z"/>
	</g>
	<g>
		<path class="st3" d="M642.1,530.5l-4.5,30.6h29.1l4.5-30.6H642.1L642.1,530.5z M645,555.4l8.3-19.1h4.2l4,19.1h-2.9l-0.9-4.4h-7.6
			l-2,4.4H645L645,555.4z"/>
		<path class="st3" d="M651.2,548.5h6l-2-9L651.2,548.5z M613,530.5l-4.5,30.6h27.5l4.6-30.6H613z M624.4,536.2h3.2l-2.9,19.1h-3.1
			L624.4,536.2L624.4,536.2z M672.9,530.5l-4.5,30.6h27.5l4.5-30.6H672.9z M679.9,536.2h12l-0.4,3h-4.6l-2.4,16.1h-3.1l2.3-16.1
			h-4.3L679.9,536.2L679.9,536.2z M585,530.5l-4.6,30.6h26.4l4.5-30.6H585z M592,536.2h11.9l-0.4,3.1h-8.7l-0.8,5.7h8.7l-0.5,3.1
			h-8.7l-1.1,7.4h-3.2C589.2,555.4,592,536.2,592,536.2L592,536.2z"/>
	</g>
	<g>
		<ellipse class="st3" cx="959.7" cy="541" rx="3.7" ry="2.9"/>
		<ellipse class="st3" cx="960.2" cy="549" rx="4.1" ry="3.1"/>
		<g>
			<path class="st3" d="M969.6,562.3C969.6,562.3,969.6,562.3,969.6,562.3L969.6,562.3z"/>
			<path class="st3" d="M1019.6,531c0-1.1-0.8-1.9-1.8-1.9c-0.9,0-4.5,0.2-5.8,0.2c-1.3,0-16.5-0.2-20.1,0
				c-3.6,0.2-8.1,0.3-10.3,0.1c-1.6-0.2-7.2-0.5-10.5,0.4c-7.1-3.5-15.9-3.5-23,0c-3.3-0.9-8.9-0.6-10.5-0.4
				c-2.2,0.2-6.7,0.1-10.3-0.1c-3.6-0.2-18.8,0-20.1,0s-4.8-0.2-5.8-0.2c-0.9,0-1.8,0.8-1.8,1.9c0,1.1,1.8,1.8,2.8,2.4
				c-0.4,1.8,1.6,3.2,3.4,3.7c0,1.3,2.4,3.2,4.2,3.4c-0.4,1.6,3.1,2.9,5.1,2.9c0,2.3,3.5,2.6,5.5,2.6c0.4,2.4,3.8,2.2,6.1,1.9
				c1,2.7,4.3,1.6,5.9,1.2c0.7,2,2.7,1.2,4.5,0.7c0.2,0.3,0.6,0.5,0.9,0.7c1.7,5.1,5.9,9.4,11.7,11.8c0,0,0,0,0,0
				c0.4,1.1,1.9,1.5,2.7,0.6c0.2,1.2,2.1,1.8,2.9,0.6c0.3,1.3,2.3,1.6,2.9,0.4c0.2,1.2,2.7,1.2,2.9,0l0,0c0.7,1.3,2.7,0.9,2.9-0.4
				c0.8,1.2,2.7,0.6,2.9-0.6c0.8,0.9,2.3,0.5,2.7-0.6c0,0,0,0,0,0c0,0,0,0,0,0c5.8-2.4,10-6.7,11.7-11.8c0.4-0.1,0.7-0.4,0.9-0.7
				c1.8,0.4,3.8,1.3,4.5-0.7c1.6,0.4,4.9,1.5,5.9-1.2c2.3,0.3,5.7,0.5,6.1-1.9c2,0,5.5-0.3,5.5-2.6c2,0,5.5-1.4,5.1-2.9
				c1.8-0.2,4.2-2.1,4.2-3.4c1.8-0.5,3.8-1.9,3.4-3.7C1017.8,532.8,1019.6,532,1019.6,531z M972,530.3c4.5-0.9,11.1-0.1,15.9-0.1
				c1.7,0,6.3-0.3,7.7-0.3l0,0c0.4,0.1,0.4,0.3-0.2,0.4c-1.2,0.2-7,1.5-8.5,1.8c-1.5,0.3-6,0.3-9.1,0.4c-1,0-1.8,0.2-2.5,0.3
				c-4.2,1.1-1.8,3.8-0.7,6c0.6,1.3-0.3,1.5-0.9,1.7c-0.1-3.7-2.5-5.1-3.3-5.7c-0.7-0.5-1.6-1.2-1.6-2.3
				C968.8,531.7,969.2,530.9,972,530.3z M977.3,543.1c-2-2-1.4-3.2,0.8-1.5c0.5,0.5,1.6,1.3,0.7,1.9
				C978.1,544,977.7,543.4,977.3,543.1z M979,547.3c0.6,0.7,1.9,1.3,1.4,2.1c-0.5,0.9-2-0.4-2.5-0.9c-0.8-0.7-1.5-1.7-1.8-2.6
				c0.4-0.1,0.8-0.2,1.1-0.4l0,0C977.8,546,978.4,546.7,979,547.3z M982.8,534.1c1.1,0.6,0.5,1.3-0.5,1.2c0.6,0.8-0.3,1.3-1.1,1
				c0.9,1.3-0.5,1.3-1.1,0.9c0.8,1.6-0.5,1.6-1.3,0.9c0.5,1.2-0.6,1.3-1.5,0.8c0.7,0.8-0.1,1.3-0.5,1c-0.5-0.4-1.7-1.6-2.1-2.2
				c-2.3-2.9,0-4.4,3.1-4.5c1.1-0.1,4.5,0,5.6,0l0,0C984.1,533.2,983.8,534.3,982.8,534.1z M978.4,541.3c-0.6-0.7-0.3-1.4,0.8-0.9
				c2.2,1.1,2,1.7,1.7,1.9C980.6,542.6,979.8,542.8,978.4,541.3z M980,540.3c-0.3-0.3-0.5-0.7-0.3-0.9c0.2-0.3,0.7-0.2,2.6,0.9l0,0
				c0.5,0.3,0.7,0.7,0.4,1.2C982.1,542.3,980.4,540.8,980,540.3z M982.3,539.8c-1-0.6-1.6-1.1-1.4-1.5c0.2-0.4,1.1-0.3,2.1,0.1
				c1.9,0.7,1.8,1.3,1.7,1.6C984.5,540.4,983.9,540.8,982.3,539.8z M983.3,538.4c-0.9-0.4-0.9-0.9-0.7-1.3c0.3-0.4,1-0.3,1.6,0l0,0
				c1.8,0.7,1.8,1.3,1.7,1.5C985.9,538.9,985.1,539.2,983.3,538.4z M985.9,537.4c-0.4,0-3.1-0.7-2.7-1.6c0.1-0.3,0.9-0.2,2,0
				c0.3,0.1,2.2,0.2,1.9,1.1C986.8,537.5,986.5,537.3,985.9,537.4z M985.6,535.5c-0.9-0.2-1.3-0.7-1.3-1c0-0.3,1.2-0.3,2.2-0.2l0,0
				c0.4,0,2.1,0,1.8,0.9C988.2,535.4,987.6,536,985.6,535.5z M986.2,533.8c-0.8-0.1-1.4-0.4-1.4-0.7c0-0.3,0.8-0.5,1.7-0.5l0,0
				c0.4,0,2.3-0.3,2.2,0.7C988.7,534.2,986.7,533.9,986.2,533.8z M950.1,530.7c5.9-2.5,13.1-2.5,19.1,0c-1.3,1.3-1.3,2.8,0.1,3.9
				c0.7,0.5,2.6,1.6,3.4,4.2c-6.4-6.6-19.7-6.6-26.1,0c0.8-2.6,2.6-3.7,3.4-4.2C951.4,533.5,951.3,532,950.1,530.7z M970.5,530
				c-0.3,0.1-0.6,0.2-0.9,0.4c-6.2-2.7-13.7-2.7-19.9,0c-0.3-0.2-0.6-0.3-0.9-0.4C955.4,526.8,963.8,526.8,970.5,530z M923.6,529.9
				L923.6,529.9c1.4,0,6,0.3,7.7,0.3c4.8,0,11.4-0.9,15.9,0.1c2.8,0.6,3.2,1.4,3.2,2.3c0,1.1-0.9,1.8-1.6,2.3
				c-0.8,0.6-3.2,2-3.3,5.7c-0.6-0.3-1.5-0.4-0.9-1.7c1.1-2.2,3.6-4.9-0.7-6c-0.7-0.2-1.5-0.3-2.5-0.3c-3.1-0.1-7.6-0.1-9.1-0.4
				c-1.5-0.3-7.3-1.6-8.5-1.8C923.2,530.2,923.2,530,923.6,529.9z M932.8,534.3L932.8,534.3c1-0.1,2.2-0.1,2.2,0.2
				c0,0.4-0.5,0.8-1.3,1c-2,0.5-2.6-0.1-2.7-0.4C930.7,534.2,932.3,534.3,932.8,534.3z M930.5,533.2c0-1,1.8-0.7,2.2-0.7
				c0.8,0.1,1.7,0.2,1.7,0.5c0,0.3-0.6,0.6-1.4,0.7C932.6,533.9,930.5,534.2,930.5,533.2z M934,535.8c1-0.2,1.8-0.3,2,0
				c0.4,0.9-2.3,1.7-2.7,1.6c-0.6-0.1-0.9,0.1-1.1-0.5C931.9,535.9,933.7,535.8,934,535.8z M942.4,539.9c-0.4,0.3-1.2-0.2-0.5-1
				c-0.9,0.5-2,0.4-1.5-0.8c-0.8,0.6-2.1,0.7-1.3-0.9c-0.5,0.4-2,0.4-1.1-0.9c-0.8,0.3-1.7-0.2-1.1-1c-1,0.2-1.6-0.6-0.5-1.2
				c-1,0.3-1.3-0.9-0.6-0.9l0,0c1.1,0,4.5,0,5.6,0c3.1,0.1,5.4,1.7,3.1,4.5C944.1,538.3,942.9,539.4,942.4,539.9z M944.4,541.9
				c-0.3,0.7-0.5,1.4-0.7,2.1l0,0c-0.7,0.6-2,0.2-1.2-0.9C943.8,541.1,944.4,541.8,944.4,541.9z M935,537.1L935,537.1
				c0.7-0.3,1.3-0.4,1.6,0c0.2,0.3,0.2,0.8-0.7,1.3c-1.7,0.9-2.6,0.5-2.7,0.2C933.1,538.3,933.1,537.8,935,537.1z M936.2,538.3
				c1.1-0.4,2-0.5,2.1-0.1c0.2,0.4-0.5,0.9-1.4,1.5c-1.6,1-2.2,0.6-2.4,0.2C934.4,539.6,934.3,539,936.2,538.3z M937,540.3
				L937,540.3c1.8-1.1,2.4-1.1,2.6-0.9c0.2,0.3,0,0.6-0.3,0.9c-0.4,0.5-2.1,1.9-2.7,1.1C936.3,541,936.5,540.6,937,540.3z
				 M940,540.4c1.1-0.5,1.4,0.2,0.8,0.9c-1.3,1.6-2.2,1.3-2.5,1C938,542.1,937.8,541.5,940,540.4z M941.1,541.6
				c2.1-1.7,2.8-0.4,0.8,1.5c-0.4,0.3-0.8,0.9-1.5,0.4C939.5,542.9,940.6,542.1,941.1,541.6z M941.9,545.5L941.9,545.5L941.9,545.5
				L941.9,545.5c0.3,0.2,0.8,0.3,1.1,0.4c-0.3,1-1,1.9-1.8,2.6c-0.5,0.5-2,1.8-2.5,0.9c-0.4-0.9,0.8-1.4,1.4-2.1
				C940.8,546.7,941.4,546,941.9,545.5z M942.2,548.9c0.3-0.4,0.9-1,1.4-1.6c0.1,0.8,0.4,1.6,0.7,2.4
				C943.4,550.9,941.5,549.8,942.2,548.9z M901.3,530.3L901.3,530.3c0.2-0.2,0.7-0.2,1.4-0.2c3.3,0,10.8,0.2,12.3,0.2
				c1.5,0,11.9,1.2,13.5,1.7c0.7,0.2,0.9,0.9,0,1c-0.9,0.1-12,0.2-13.6,0.2c-1.2,0-7.6,0-11.3-0.8
				C901.7,532.1,900.6,530.9,901.3,530.3z M904.6,534.9c-0.5-0.7,0.1-0.7,0.3-0.7l0,0c1.9,0.1,11.4,0.1,12.5,0.1
				c1.1-0.1,9.7-0.5,10.7-0.6c2.2-0.1,2.9,0.8,0.6,1.4c-1.2,0.3-11.8,1.5-19.9,1.3C907.2,536.5,905.1,535.7,904.6,534.9z
				 M908.6,537.7L908.6,537.7c1.3,0,16.8-1.2,20.1-1.8c2.8-0.4,2.2,1,1.1,1.3c-1,0.2-12.5,2.4-18.3,2.5
				C909.5,539.6,907.2,537.8,908.6,537.7z M914.5,542.2c-3.4-0.7-1.9-1.2-1.9-1.2c1.8-0.2,14.1-2.2,17.4-3.1c3-0.8,2.4,1.2,1.3,1.5
				c-1,0.3-11.4,2.8-13.8,2.9C916.5,542.5,915.5,542.4,914.5,542.2z M920.9,545.1c-1.4,0-4-0.8-3.4-1.4l0,0c1.3-0.3,12-2.7,15.1-3.8
				c1.5-0.5,1.9,0.9,1,1.4C933,541.5,924.8,544.9,920.9,545.1z M922.7,546.3c0-0.2,0.4-0.4,0.8-0.5c2.8-0.6,10.2-3.7,11.4-4.3
				c0.1,0.2,1.1,0.9,1.5,1.1c-1.7,1.7-5.8,3.2-7.9,3.8C928.2,546.6,923,548,922.7,546.3z M931.3,548.2c-2.4,0.7-3.7-0.6-2.5-1
				c2.4-0.7,7.5-3.4,8.3-3.9c0.4,0.2,1.1,0.6,1.4,0.8C937.9,544.7,934,547.8,931.3,548.2z M936.6,548.8c-2.1,0.8-2.6,0.3-2.6,0.1
				c0-0.5,1.1-1.1,1.6-1.5c1.2-0.8,3-2,4-2.6c0.3,0.2,1,0.4,1.3,0.5C939.5,547.1,937.9,548.2,936.6,548.8z M949.6,561.8
				c-5.5-2.3-9.5-6.3-11.1-11.2c0.3,0.1,0.6,0.1,0.8,0.1c1.6,4.4,5.4,8.1,10.5,10.3C949.7,561.3,949.6,561.6,949.6,561.8z
				 M950,560.7c-4.9-2.2-8.6-5.8-10.2-10c0.6-0.1,1.1-0.2,1.6-0.5l0,0c0.6,1.4,2.6,1.1,3.7,0.7c1.6,2.4,4.2,4.3,7.4,5.5L950,560.7z
				 M952.4,562C952.4,562,952.4,562,952.4,562c-0.8,2-3.2,0.8-2.1-1l2.6-4.4c0.5,0.2,1,0.3,1.5,0.4C954.4,557,952.5,561.9,952.4,562
				z M955.2,562.6L955.2,562.6c-0.5,2-2.9,1.4-2.3-0.5l2.1-5c0.5,0.1,1,0.2,1.5,0.3C956.4,557.4,955.2,562.6,955.2,562.6z
				 M958,562.9L958,562.9c-0.2,2.1-2.8,1.8-2.3-0.4c0,0,1.2-5.1,1.2-5.1c0.5,0.1,1,0.1,1.5,0.1C958.4,557.6,958,562.9,958,562.9z
				 M950.5,552.2c0.5-0.6,0.8-1.1,0.9-1.7v-10.6c0-0.6-0.5-1.1-1-1.4c1.9-1.6,5.1-2.5,9-2.5c6.5,0,8.8,2.9,8.8,4.8
				c0,2-2.2,3.5-2.6,3.7c-0.4,0.2-0.5,0.6,0,0.8c1.9,0.6,3.6,2.3,3.6,3.9l0,0l0,0l0,0c0,3.9-4.8,5.3-9.5,5.4
				C955.3,554.6,952.2,553.4,950.5,552.2z M958.5,562.9c0,0,0.3-5.2,0.3-5.2c0.5,0,1.2,0,1.7,0c0,0,0.4,5.2,0.4,5.2
				C961,564.9,958.3,565,958.5,562.9z M961.2,562.9L961.2,562.9c0,0-0.4-5.3-0.3-5.3c0.5,0,1-0.1,1.5-0.1c0,0,1.2,5.1,1.2,5.1
				C964,564.7,961.4,565,961.2,562.9z M964,562.6L964,562.6c0,0-1.2-5.2-1.2-5.2c0.5-0.1,1-0.2,1.5-0.3c0.1,0.3,2.1,5,2.1,5
				C966.9,564,964.5,564.6,964,562.6z M966.8,562L966.8,562c0-0.1-1.9-4.9-1.9-5c0.5-0.1,1-0.3,1.5-0.4l2.6,4.4
				C970,562.8,967.6,564,966.8,562z M966.7,556.4c3.2-1.2,5.8-3.1,7.4-5.5c1.2,0.4,3.1,0.7,3.7-0.7c0,0,0,0,0,0h0l0,0
				c0.5,0.2,1.1,0.4,1.6,0.5c-1.6,4.2-5.3,7.8-10.2,10L966.7,556.4z M969.6,561.8c0-0.3-0.1-0.5-0.2-0.7c5.1-2.2,8.8-6,10.5-10.3
				c0.3,0,0.6,0,0.8-0.1C979.1,555.5,975.1,559.5,969.6,561.8z M982.6,548.8c-1.3-0.5-2.9-1.6-4.2-3.6c0.3-0.1,0.9-0.3,1.3-0.5l0,0
				c1,0.7,2.8,1.9,4,2.6c0.5,0.3,1.6,1,1.6,1.5C985.2,549.1,984.7,549.5,982.6,548.8z M987.9,548.2c-2.7-0.4-6.6-3.6-7.2-4.2
				c0.3-0.2,1-0.6,1.4-0.8c0.8,0.5,5.9,3.2,8.3,3.9C991.6,547.7,990.3,548.9,987.9,548.2z M996.5,546.3c-0.3,1.7-5.5,0.3-5.8,0.1
				c-2-0.6-6.1-2.2-7.9-3.8c0.4-0.2,1.4-0.9,1.5-1.1c1.2,0.6,8.6,3.7,11.4,4.3C996.1,545.9,996.5,546.1,996.5,546.3z M998.3,545.1
				c-3.9-0.2-12.1-3.6-12.7-3.9c-0.9-0.4-0.5-1.9,1-1.4c3.1,1.2,13.7,3.6,15.1,3.8l0,0C1002.4,544.4,999.8,545.1,998.3,545.1z
				 M1004.7,542.2c-1,0.2-2,0.3-3,0.2c-2.4-0.1-12.8-2.7-13.8-2.9c-1.1-0.3-1.7-2.3,1.3-1.5c3.3,0.9,15.6,2.8,17.4,3.1
				C1006.7,541,1008.1,541.5,1004.7,542.2z M1007.8,539.7c-5.8-0.1-17.4-2.3-18.3-2.5c-1.1-0.2-1.8-1.7,1.1-1.3
				c3.3,0.7,18.8,1.8,20.1,1.8C1012,537.8,1009.7,539.6,1007.8,539.7z M1014.6,534.9c-0.5,0.7-2.6,1.5-4.1,1.5
				c-8.1,0.2-18.8-1.1-19.9-1.3c-2.3-0.5-1.6-1.5,0.6-1.4c1,0.1,9.6,0.5,10.7,0.6c1.1,0.1,10.6,0,12.5-0.1
				C1014.6,534.2,1015.1,534.2,1014.6,534.9z M1015.5,532.5c-3.7,0.7-10,0.8-11.3,0.8c-1.6,0-12.7-0.2-13.6-0.2
				c-0.9-0.1-0.7-0.8,0-1c1.6-0.5,12.1-1.7,13.5-1.7s9.1-0.2,12.3-0.2c0.6,0,1.1,0,1.4,0.2h0
				C1018.6,530.9,1017.5,532.1,1015.5,532.5z"/>
			<path class="st3" d="M949.7,562.3C949.7,562.3,949.7,562.3,949.7,562.3C949.7,562.3,949.7,562.3,949.7,562.3z"/>
		</g>
	</g>
	<g>
		<path class="st3" d="M1245.4,514v70h70v-70H1245.4z M1313,581.6h-65.2v-65.2h65.2V581.6z"/>
		<path class="st3" d="M1310.5,577.1c0.4,0,0.7-0.3,0.7-0.8c0-0.4-0.3-0.8-0.7-0.8c-0.4,0-0.8,0.3-0.8,0.8c0,0,0,0,0,0
			C1309.7,576.7,1310.1,577.1,1310.5,577.1z M1309.8,576.3c0-0.4,0.3-0.7,0.7-0.7c0.4,0,0.7,0.3,0.7,0.7c0,0,0,0,0,0
			c0,0.4-0.3,0.7-0.7,0.7C1310.1,577,1309.8,576.7,1309.8,576.3C1309.8,576.3,1309.8,576.3,1309.8,576.3z"/>
		<path class="st3" d="M1303.6,570.9c-0.6,0.5-2.2,1.6-3.1,2.2v-2.3c0-0.9,0.4-1.2,1.6-1.2v-0.5h-5.3v0.5c1.1,0,1.6,0.2,1.6,1.2v4.4
			c0,1.1-0.9,1.3-1.9,1.3v0.5h5.8v-0.5c-0.9,0-1.8-0.4-1.8-1.3V574c0,0,0.2-0.1,0.4-0.3c0.4-0.3,0.7-0.1,1,0.2
			c0.3,0.3,3.5,3.2,3.5,3.2h3.5v-0.5c-0.5,0-1-0.3-1.9-1c-0.8-0.7-2.2-2-4-3.4c1.4-1.1,2.6-2.2,5.1-2.6v-0.5h-5.1v0.5
			C1304.6,569.6,1304.2,570.4,1303.6,570.9z"/>
		<path class="st3" d="M1280.4,565.3c12,0,21.8-9.8,21.8-21.8c0-12-9.8-21.8-21.8-21.8c-12,0-21.8,9.8-21.8,21.8
			C1258.6,555.5,1268.4,565.3,1280.4,565.3z M1280.4,524c10.8,0,19.5,8.7,19.5,19.5c0,10.8-8.7,19.5-19.5,19.5s-19.5-8.7-19.5-19.5
			C1260.9,532.7,1269.6,524,1280.4,524z"/>
		<path class="st3" d="M1292.3,553.4c0-0.1,0-0.1-0.1-0.2c-0.1,0-0.1,0-0.2,0h-0.4v0.8h0.1v-0.4h0.2l0.2,0.4h0.1l-0.3-0.4l0,0
			C1292.1,553.6,1292.3,553.5,1292.3,553.4z M1291.9,553.5h-0.2v-0.3h0.2c0.1,0,0.2,0,0.2,0.1C1292.2,553.5,1292,553.5,1291.9,553.5
			z"/>
		<path class="st3" d="M1276.8,550.4c1.5,3.8,3.6,6.6,3.8,6.9c0.2-0.4,3.6-4.8,4.7-9.9l0,0c1.5,3.7,3.6,6.6,3.8,6.9
			c0.3-0.4,5-6.7,5-12.9v-10.9H1284v3h-8.5v3h-8.5v10.9c0,6.3,4.8,12.5,5,12.9C1272.3,560,1275.7,555.5,1276.8,550.4z M1285.6,532.1
			h6.9v9.5c0,4.8-3.2,9.1-3.4,9.5c-0.2-0.3-3.4-4.7-3.4-9.5V532.1z M1277.1,535.1L1277.1,535.1h6.9v9.5c0,4.8-3.2,9.1-3.4,9.5
			c-0.2-0.3-3.4-4.7-3.4-9.5V535.1z M1268.6,538.1h6.9v9.5c0,4.8-3.2,9.1-3.4,9.5c-0.2-0.3-3.5-4.7-3.5-9.5V538.1z"/>
		<path class="st3" d="M1310.3,576.3h0.2l0.2,0.4h0.1l-0.3-0.4l0,0c0.1,0,0.3-0.1,0.3-0.2c0-0.1,0-0.1-0.1-0.2c-0.1,0-0.1,0-0.2,0
			h-0.4v0.8h0.1V576.3z M1310.3,576h0.2c0.1,0,0.2,0,0.2,0.1c0,0.2-0.2,0.1-0.3,0.1h-0.2V576z"/>
		<path class="st3" d="M1276.8,574.7c0-1.4,0.1-3,0.1-5.6h-4.1v0.6c1,0,1.8,0.3,1.8,1.3c0,1,0,2.1-0.1,3.6c-0.1,1.4-1.2,2-2.9,2
			c-1.7,0-2.3-0.7-2.3-2c0-1.3,0.1-2.6,0.2-5.4h-4.1l0,0v0.5c1.3,0,1.8,0.3,1.8,1.2c0,0.9-0.1,1.8-0.1,4c0,2.2,2.6,2.4,4.2,2.4
			c1.5,0,2.5-0.2,3.4-1.2v1.1h3.7v-0.6C1276.9,576.4,1276.8,576.1,1276.8,574.7z"/>
		<path class="st3" d="M1282.8,575.1v-4.2c0-1,0.6-1.3,1.6-1.3v-0.5h-5.4v0.5c1,0,1.6,0.3,1.6,1.3v4.2c0,0.9-0.4,1.3-1.7,1.3v0.6
			h5.5v-0.6C1283.3,576.4,1282.8,576,1282.8,575.1z"/>
		<path class="st3" d="M1275.2,546v-7.6h-6.2l6.1,10.8C1275.1,548.7,1275.2,547.7,1275.2,546z"/>
		<path class="st3" d="M1290.9,576.6c-2.2,0-3.3-0.6-3.3-3.5s1-3.6,3.3-3.6c2.2,0,3.1,0.7,3.1,2.1h1.6v-2.2
			c-0.8-0.2-2.1-0.5-4.7-0.5c-4.3,0-5.6,1.5-5.6,4.2l0,0c0,3.2,2.1,4.1,5.6,4.1c3.5,0,5-1.2,5-3h-1.8
			C1294.1,575.8,1293.1,576.6,1290.9,576.6z"/>
		<path class="st3" d="M1261.4,577c2.5,0,3.7-0.8,3.7-2.3c0-1.5-1.1-1.7-2.7-1.8c-0.2,0-0.3-0.1,0-0.2c1.2-0.1,2.3-0.5,2.3-1.9
			c0-1.4-0.9-1.7-2.9-1.7c-3.1,0-4.7,0.1-8.8,0l0,0v0.5c1.6,0,1.8,0.5,1.8,1.5v3.8c0,1.3-0.7,1.7-1.9,1.7v0.5
			C1256.6,577,1257.9,577,1261.4,577z M1258.1,569.7c1,0,1.4,0,2.4,0c0.9,0,1.7,0.3,1.7,1.3c0,1-0.6,1.5-1.6,1.5
			c-1.1,0.1-1.9,0-3.7,0c0-1.1,0-1.5,0-2C1256.9,570.1,1257.2,569.7,1258.1,569.7z M1256.9,573.3L1256.9,573.3c1.2,0,2.8-0.1,3.9,0
			c1.1,0.1,1.9,0.3,1.9,1.4c0,1.1-1,1.6-1.8,1.7c-1.1,0.1-1.9,0-2.8,0c-0.8,0-1.2-0.3-1.3-1.3
			C1256.9,574.1,1256.9,573.3,1256.9,573.3z"/>
		<path class="st3" d="M1274.2,552.2l-5.3-9.3v4.8c0,3.1,1.6,6.5,3.1,8.7C1272.7,555.3,1273.5,554,1274.2,552.2z"/>
		<polygon class="st3" points="1277.5,535.4 1277.5,535.4 1277.5,535.4 		"/>
		<path class="st3" d="M1283.6,543v-7.6h-6.2l6.1,10.8C1283.6,545.7,1283.6,544.7,1283.6,543z"/>
		<path class="st3" d="M1282.7,549.1l-5.3-9.3l0,0v4.8c0,3.1,1.6,6.5,3.1,8.7C1281.2,552.3,1282,551,1282.7,549.1z"/>
		<polygon class="st3" points="1272.1,560.3 1272.1,560.3 1272.1,560.3 		"/>
		<path class="st3" d="M1292.1,540v-7.6h-6.2l6.1,10.8C1292.1,542.7,1292.1,541.7,1292.1,540z"/>
		<path class="st3" d="M1289,550.4c0.7-1.1,1.5-2.3,2.2-4.2l-5.3-9.3v4.8C1285.9,544.8,1287.6,548.2,1289,550.4z"/>
		<polygon class="st3" points="1289,554.3 1289,554.3 1289,554.3 		"/>
		<polygon class="st3" points="1280.6,557.3 1280.6,557.3 1280.5,557.3 		"/>
		<path class="st3" d="M1291.9,552.8c-0.4,0-0.8,0.3-0.8,0.7c0,0,0,0,0,0c0,0.4,0.3,0.8,0.8,0.7c0,0,0,0,0,0c0.4,0,0.8-0.3,0.7-0.8
			C1292.6,553.2,1292.3,552.8,1291.9,552.8z M1291.9,554.2c-0.4,0-0.7-0.3-0.7-0.7c0-0.4,0.3-0.7,0.7-0.7s0.7,0.3,0.7,0.7
			C1292.5,553.9,1292.2,554.2,1291.9,554.2z"/>
		<polygon class="st3" points="1285.9,536.9 1285.9,536.9 1285.9,536.9 		"/>
	</g>
	<g>
		<path class="st3" d="M1551.3,581.5c-5.7,0-10.3-4.6-10.3-10.4c0-5.7,4.6-10.4,10.3-10.4c3.8,0,7,2,8.9,5.1l-3.6,2.1
			c-1-1.7-3-3-5.2-3c-3.3,0-6.1,2.9-6.1,6.2c0,3.3,2.9,6.2,6.1,6.2c2.2,0,4.2-1.2,5.2-3l3.7,2.2
			C1558.4,579.5,1555.1,581.5,1551.3,581.5z M1566.3,581h-4.4v-19.8h4.4V581z M1578.2,581h-4.4v-15.6h-6.3v-4.2h16.9v4.2h-6.3
			L1578.2,581L1578.2,581z M1590,570.3h4.8c1.7,0,3.1-0.7,3.1-2.6c0-1.9-1.3-2.7-3.1-2.7h-4.8V570.3z M1590,573.9v7.1h-4.3v-19.8
			h9.6c4.2,0,6.8,2.4,6.8,6.4c0,3.2-1.6,5.3-4.3,6l5.2,7.4h-5l-4.6-7.1H1590z M1613.9,581.6c-5.8,0-10.4-4.7-10.4-10.4
			c0-5.7,4.7-10.4,10.4-10.4c5.8,0,10.6,4.7,10.6,10.4C1624.4,576.9,1619.7,581.6,1613.9,581.6z M1613.9,565.1
			c-3.4,0-6.1,2.7-6.1,6.1c0,3.3,2.7,6,6.1,6c3.3,0,6.1-2.7,6.1-6C1619.9,567.9,1617.3,565.1,1613.9,565.1z M1632.2,559
			c0,1-0.9,1.7-1.8,1.7c-1,0-1.7-0.8-1.7-1.7c0-1,0.8-1.7,1.7-1.7c0,0,0,0,0,0C1631.4,557.3,1632.2,558.1,1632.2,559z M1638.5,559
			c0,1-0.8,1.7-1.8,1.7c-1,0-1.7-0.8-1.7-1.7c0-1,0.8-1.7,1.7-1.7C1637.7,557.3,1638.5,558.1,1638.5,559z M1630.4,565.2v3.7h9.4v3.6
			h-9.4v4.4h10.7v4.1h-14.9v-19.8h14.9v3.9L1630.4,565.2L1630.4,565.2L1630.4,565.2z M1646.9,568v13h-4.3v-19.8h5.2l7.9,13.4v-13.4
			h4.3V581h-5.3L1646.9,568L1646.9,568z"/>
		<path class="st3" d="M1580.7,511.6v39.7h39.7v0v-39.7H1580.7z M1600.5,534.1L1582,550l0,0l18.5-24.4L1619,550L1600.5,534.1z
			 M1600.5,521.5l-18.5,15.9l18.5-24.4l0,0l18.5,24.4L1600.5,521.5z"/>
	</g>
	<path class="st3" d="M287.7,896.3v-62.5h65.8v62.5H287.7z M357.3,830H284v70h73.3V830z M352.7,834.8h-63.9v60.5h63.9V834.8z
		 M313.7,855.8v-2.1c0-2.1-1-3.1-3.1-3.1c-1.1,0-1.9,0.5-2.2,1.5c-0.4,1-0.5,2.3-0.5,3.8v8.7c0,2.1,0.1,3.6,0.4,4.5
		c0.3,0.9,1.1,1.4,2.3,1.4c0.9,0,1.7-0.2,2.2-0.6c0.6-0.4,0.8-1.2,0.8-2.3v-4.9h-2.9v-3.8h6.9v15.4h-4v-1.6c-0.4,0.5-1,1-1.9,1.4
		s-1.6,0.6-2.2,0.7c-2.7,0-4.4-0.6-5.1-1.9c-0.7-1.3-1.1-3.5-1.1-6.6v-10.7c0-3.3,0.6-5.6,1.9-6.9c1.3-1.3,3-1.9,5.1-1.9
		c2.1,0,3.8,0.4,5.2,1.3c1.3,0.9,2,2.4,2,4.6v3.2L313.7,855.8L313.7,855.8z M334.3,874.2v-17.9l-3.5,17.9l-3.3,0l-3.3-17.8l0.1,17.8
		h-4v-26.9h5.5l3.5,17.8l3.6-17.8l5.6,0v26.9H334.3L334.3,874.2z M303.5,883.5v-7.6h35v7.6H303.5L303.5,883.5z"/>
	<path class="st3" d="M641.5,840.8c-2.4,3-9.4,12.7-10.2,14c-1.5,2.4-1.7,3.6-1.7,4.4c0,0.8,0,2.1,1.2,3.3c2.1,1.9,5,1.6,7.6,1.6
		h21.4c0.9,0,1.2-0.3,1.7-0.9c1.7-2.6,2.5-5.4,2.5-8c0-5.4-3.5-12.3-12.5-15.4l-1,1.4c7.1,3.4,10,7.8,10,13.9c0,1.7-0.4,3.4-1.5,5.1
		h-20.8c-1.2,0-1.4-1.4-1-2.2c1.8-3.2,3.8-6.2,6-9.1c2.1-2.8,4.2-5.4,6.3-8.2c0.6-0.8,0.2-1.5-1-1.7c-2.4-0.5-5-0.9-8-0.9
		c-17.1,0-23.3,9.8-23.3,17.1c0,7.9,6.3,17,23.3,17c9.5,0,15.7-3,19.2-7h-3.6c-3.1,2.9-8.5,5-15.6,5c-14.4,0-19.8-8.1-19.8-15.1
		c0.1-6.2,5.8-14.9,20.1-15.1C641.5,839.9,641.9,840.4,641.5,840.8L641.5,840.8z M692.8,885.8c0.9,0.1,1.5,0.8,1.5,1.6
		c0,0.9-0.8,1.6-1.8,1.6h-18.3v-12h-5.4v12h-9.9c-2.7,0-3.2-1.6-3.2-3.1v-9h-9c-0.9,0.6-1.7,1.3-2.7,1.8l-5.3,3.3l-6.9-5h-10.7v3
		h3.9v-1.7l9.1,6.6l-6.2,3.9h-6.8v3h7.8c0.8-0.6,1.6-1.2,2.5-1.7l5.5-3.3l6.9,5h7.9l-10.4-7.8l5.4-3.5c1.1-0.8,2.3-1.4,3.5-2.1v7.9
		c0,3.3,0.9,5.6,7.6,5.6l37.9-0.1c2.9,0,4.8-2,4.8-4.4c0-2.4-2.2-4.4-4.8-4.4h-13.7c0.2-1.7,1.6-3.1,3.1-3.1h13.8l0-2.9h-14.7
		c-4.7,0-8.4,3.9-8.5,8.3c0,0.3,0.2,0.5,0.5,0.5L692.8,885.8L692.8,885.8z M621.1,885.7v-3.1h2.7v3.1H621.1z M621.1,877H611
		c-2.7,0-4.9,0.7-6.4,1.9c-2.8,2.2-3.7,4.6-3.7,5.6h3.7c-1.6,1.2-2.7,2.6-3.3,4.3h-12c-2.2,0-3.6-1.5-3.6-3v-9h-5.3v9.3
		c0,3.3,3.2,5.7,8.3,5.7h32.4v-3h-12.9c0.1-1.5,1.7-3.1,3.2-3.1h9.7v-3.1h-13c-0.2-0.9,1.5-2.7,2.8-2.7h10.2V877L621.1,877z"/>
	<g>
		<path class="st3" d="M966.8,829.3c-3.1-1.8-5.2-2.3-7.1-2.3c-2,0-4.1,0.5-7.1,2.3c-8.9,5.2-21.6,17-21.6,37.7
			c0,20.8,12.7,32.6,21.6,37.7c3.1,1.8,5.2,2.3,7.1,2.3s4.1-0.5,7.1-2.3c8.9-5.2,21.6-17,21.6-37.7
			C988.3,846.2,975.7,834.4,966.8,829.3z M966.4,903.1c-2.9,1.7-4.9,2.3-6.8,2.3c-1.8,0-3.9-0.7-6.8-2.3
			c-8.4-4.9-20.4-16.5-20.4-36.1c0-19.6,12-31.2,20.4-36.1c2.9-1.7,4.9-2.3,6.8-2.3c1.8,0,3.9,0.7,6.8,2.3
			c8.4,4.9,20.4,16.5,20.4,36.1l0,0C986.8,886.6,974.8,898.2,966.4,903.1z"/>
		<g>
			<polygon class="st3" points="977.9,843.5 977.9,843.5 977.9,843.5 			"/>
			<polygon class="st3" points="964.6,848.3 964.6,848.3 964.6,848.3 			"/>
			<polygon class="st3" points="941.3,843.5 941.3,843.5 941.3,843.5 			"/>
			<path class="st3" d="M973,865.6l-0.7,0h0c-0.3,0-0.4-0.1-0.4-0.3c-0.2-7.3,2.5-15.8,6-21.8c-2.2,0.9-5.1,3.4-6.8,6.6l0,0
				c0.8-0.4,1.5-0.8,2.2-1.3c0.3-0.1,0.6,0,0.5,0.4c-2.9,5-4.9,10.4-5.5,16.4l-2.9,0l-4.8-7.7l0-10.7l0,0c0-0.3,0.1-0.4,0.4-0.3
				l3.4,1.4l0,0l0,0l0,0c-2.7-3.1-4.6-6.7-5-10.8h0c-0.4,4.1-2.3,7.7-5,10.8l3.4-1.4c0.3-0.1,0.4,0.1,0.4,0.3l0,0l0,10.7l-4.8,7.7
				l-2.9,0c-0.5-6-2.6-11.4-5.5-16.4c-0.1-0.4,0.2-0.5,0.5-0.4c0.7,0.4,1.5,0.8,2.2,1.3l0,0c-1.8-3.2-4.6-5.7-6.8-6.6
				c3.5,6,6.3,14.5,6,21.8c0,0.2-0.1,0.3-0.4,0.3l-0.7,0c-0.2,0-0.3,0.1-0.3,0.2l0,1.1c0,0.2,0.1,0.2,0.2,0.2H973
				c0.1,0,0.2-0.1,0.2-0.2l0-1.1C973.2,865.7,973.2,865.6,973,865.6z M964.6,848.3C964.6,848.3,964.6,848.3,964.6,848.3
				C964.6,848.3,964.6,848.3,964.6,848.3z M964.6,848.3C964.6,848.3,964.6,848.3,964.6,848.3C964.6,848.3,964.6,848.3,964.6,848.3z
				 M964.5,848.3C964.5,848.3,964.5,848.3,964.5,848.3C964.5,848.3,964.5,848.3,964.5,848.3z M964.5,848.3
				C964.5,848.3,964.5,848.3,964.5,848.3C964.5,848.3,964.5,848.3,964.5,848.3z M964.5,848.2C964.5,848.2,964.5,848.2,964.5,848.2
				C964.5,848.2,964.5,848.2,964.5,848.2z M964.4,848.2C964.4,848.2,964.4,848.2,964.4,848.2C964.4,848.2,964.4,848.2,964.4,848.2z
				 M964.4,848.1C964.4,848.1,964.4,848.1,964.4,848.1C964.4,848.1,964.4,848.1,964.4,848.1z M964.2,847.9
				C964.2,847.9,964.2,847.9,964.2,847.9C964.2,847.9,964.2,847.9,964.2,847.9z M964.1,847.8C964.1,847.8,964.1,847.8,964.1,847.8
				C964.1,847.8,964.1,847.8,964.1,847.8z M964,847.7c0,0-0.1-0.1-0.1-0.1C964,847.6,964,847.7,964,847.7z M963.9,847.6
				C963.9,847.6,963.9,847.5,963.9,847.6C963.9,847.5,963.9,847.6,963.9,847.6z M963.9,847.5C963.8,847.5,963.8,847.5,963.9,847.5
				C963.8,847.5,963.8,847.5,963.9,847.5z M963.7,847.4C963.7,847.4,963.7,847.3,963.7,847.4C963.7,847.3,963.7,847.4,963.7,847.4z
				 M963.7,847.3C963.6,847.3,963.6,847.2,963.7,847.3C963.6,847.2,963.6,847.3,963.7,847.3z M963.6,847.2
				C963.6,847.2,963.6,847.2,963.6,847.2C963.6,847.2,963.6,847.2,963.6,847.2z M963.5,847.1C963.5,847.1,963.5,847.1,963.5,847.1
				C963.5,847.1,963.5,847.1,963.5,847.1z M963.5,847.1C963.5,847.1,963.5,847.1,963.5,847.1C963.5,847.1,963.5,847.1,963.5,847.1z
				 M963.5,847.1C963.5,847,963.5,847,963.5,847.1C963.5,847,963.5,847,963.5,847.1z M963.4,847C963.4,847,963.4,847,963.4,847
				C963.4,847,963.4,847,963.4,847z M963.4,847C963.4,847,963.4,847,963.4,847C963.4,847,963.4,847,963.4,847z M963.4,846.9
				C963.4,846.9,963.4,846.9,963.4,846.9C963.4,846.9,963.4,846.9,963.4,846.9z M958.4,865.6h-1.9l1.9-3.1V865.6z M960.8,865.6v-3.1
				l1.9,3.1H960.8z"/>
		</g>
		<path class="st3" d="M971.3,869.1c0.1,0,0.2-0.1,0.2-0.2l0-1.1c0-0.1-0.1-0.2-0.3-0.2h-23.4c-0.2,0-0.3,0.1-0.3,0.2l0,1.1
			c0,0.2,0.1,0.2,0.2,0.2H971.3L971.3,869.1z M973,871.2c0.1,0,0.2-0.1,0.2-0.2l0-1.1c0-0.1-0.1-0.2-0.3-0.2h-26.7
			c-0.2,0-0.3,0.1-0.3,0.2l0,1.1c0,0.2,0.1,0.2,0.2,0.2H973z M971.3,873.2c0.1,0,0.2-0.1,0.2-0.2l0-1.1c0-0.1-0.1-0.2-0.3-0.2h-23.4
			c-0.2,0-0.3,0.1-0.3,0.2l0,1.1c0,0.2,0.1,0.2,0.2,0.2H971.3L971.3,873.2z"/>
		<path class="st3" d="M959.5,882.3h0.1v0.1h-0.1V882.3z"/>
		<g>
			<path class="st3" d="M964,893.2C964,893.2,964,893.2,964,893.2C964,893.2,964,893.2,964,893.2z"/>
			<path class="st3" d="M964,893.2C964,893.2,964,893.2,964,893.2C964,893.2,964,893.2,964,893.2z"/>
			<path class="st3" d="M964,893.1C964,893.1,964,893.1,964,893.1C964,893.1,964,893.1,964,893.1z"/>
			<path class="st3" d="M964,893.2C964,893.2,964,893.2,964,893.2C964,893.2,964,893.2,964,893.2z"/>
			<path class="st3" d="M963.1,889h-0.2v3.3h0.2c1.2,0,1.6-0.8,1.6-1.7C964.7,889.8,964.1,889,963.1,889z"/>
			<polygon class="st3" points="951.3,889.4 950.6,892.5 952,892.5 951.3,889.4 			"/>
			<path class="st3" d="M962.8,885.9c0.8-1.6,0.8-2.5,0-3.6l2.1,0c0.1,0,0.2-0.1,0.2-0.2l0-1.6c0-0.1-0.1-0.2-0.3-0.2
				c-1,0-0.6-1.3-1.5-1.4c0.1-0.2,0.3-0.4,0.2-0.6c-0.4-0.2-0.7-0.6-1.2-0.9c-0.4-0.2-0.7,0-1.1,0.1c-0.2,0.1-0.3,0-0.2-0.1
				c0.5-0.4,1.3-1.1,0.8-1.8c0.5,0.2,0.7,0.3,1.4,0.3c0.8,0,1.2-0.2,1.4-0.3c0.5-0.1,0,0.4-0.2,0.6c-0.2,0.2-0.2,0.2-0.5,0.4
				c1.5,0,2-1.1,2.8-1c0.2,0-0.1,0.4-0.3,0.6c-0.2,0.1-0.3,0.3-0.5,0.4c0.8,0,1.5-0.3,2-0.8c0.1-0.2,0.2-0.2,0.2-0.2
				c0-0.1,0.1-0.1,0.2-0.1s0.1,0,0.2,0.1c0.3,0.5,0.8,0.7,1.5,0.7c0.8,0,1.6-0.5,1.9-1.1l1,0c0.1,0,0.2-0.1,0.2-0.2v-0.9
				c0-0.1-0.1-0.2-0.3-0.2l-26.7,0c-0.1,0-0.2,0.1-0.2,0.2v0.9c0,0.1,0.1,0.2,0.2,0.2l1.1,0c0.3,0.7,1.1,1.1,1.9,1.1
				c0.7,0,1.1-0.2,1.5-0.7c0-0.1,0.1-0.1,0.2-0.1c0.1,0,0.2,0,0.2,0.1c0.1,0.1,0.1,0,0.2,0.2c0.5,0.5,1.1,0.9,2,0.8
				c-0.2-0.1-0.3-0.3-0.5-0.4c-0.2-0.2-0.5-0.6-0.3-0.6c0.8,0,1.3,1.1,2.8,1c-0.3-0.2-0.3-0.3-0.5-0.4c-0.2-0.1-0.7-0.7-0.2-0.6
				c0.3,0.1,0.7,0.3,1.4,0.3c0.7,0,0.9-0.1,1.4-0.3c-0.6,0.7,0.2,1.4,0.8,1.8c0.1,0.1,0,0.2-0.2,0.1c-0.4-0.1-0.7-0.3-1.1-0.1
				c-0.6,0.3-0.8,0.7-1.2,0.9c-0.1,0.2,0.1,0.5,0.2,0.6c-0.8,0.1-0.5,1.4-1.5,1.4c-0.2,0-0.3,0.1-0.3,0.2l0,1.6
				c0,0.1,0.1,0.2,0.2,0.2l2.1,0c-0.7,1.1-0.8,2,0,3.6l-18.5,0c3.9,7.9,10.7,13.6,15.5,16.4c2.7,1.5,4.5,2.1,6.2,2.1
				c1.7,0,3.5-0.6,6.2-2.1c4.8-2.8,11.6-8.5,15.5-16.4L962.8,885.9z M948.5,894H948v-3.3c0-0.2,0-0.9,0-1.4h0l-1.3,3.5h0h0l-1.3-3.5
				h0c0,0.5,0,1.2,0,1.4v3.3h-0.5v-5.5h0.7l1.1,2.8h0l1.1-2.8h0.7V894z M952.4,894l-0.2-1h-1.8l-0.2,1h-0.5l1.4-5.5h0.6l1.4,5.5
				H952.4z M960.8,879.5c0.3,0.2,0.4,0.3,0.7,0.4c0.7,0.2,1.3-0.1,1.7-0.5l0,0.7l0,0l-2.9,0v-0.5C960.3,879.7,960.2,879,960.8,879.5
				z M959.6,882.3h0.1v0.1h-0.1V882.3z M956.1,880.2L956.1,880.2l0-0.7c0.4,0.4,1,0.7,1.7,0.5c0.3-0.1,0.5-0.2,0.7-0.4
				c0.6-0.6,0.5,0.1,0.5,0.2v0.5L956.1,880.2z M955.7,894.1c-0.7,0-1-0.1-1.5-0.3l0-0.4c0.6,0.2,1,0.3,1.5,0.3
				c0.5,0,1.2-0.3,1.2-0.9c0-0.6-0.5-0.8-0.9-1h0l-0.8-0.4c-0.5-0.2-1.3-0.6-1.3-1.5c0-0.8,0.6-1.3,1.7-1.3c0.6,0,0.9,0.1,1.4,0.3
				l0,0.5c-0.5-0.2-0.9-0.3-1.3-0.3c-0.6,0-1.2,0.1-1.2,0.8c0,0.6,0.5,0.9,0.9,1.1l0.8,0.4c0.6,0.3,1.2,0.6,1.2,1.5
				C957.3,893.5,956.7,894.1,955.7,894.1z M958.3,882.4h-0.6v-0.1L958.3,882.4L958.3,882.4z M958.4,894v-5.5h2.3v0.5h-1.8v2.1h1.8
				v0.5h-1.8v1.9h1.8v0.5H958.4z M961.5,882.4h-0.6v-0.1L961.5,882.4L961.5,882.4z M964.7,893.4l0.1,0.6l-0.6,0c0-0.4,0-0.7-0.2-0.9
				l0,0c-0.2-0.2-0.4-0.3-0.9-0.3h-0.2v1.2h-0.5v-5.5h0.7c1.3,0,2.1,1,2.1,2.1c0,1.2-0.5,1.7-1.2,2
				C964.5,892.8,964.6,893,964.7,893.4z M968.8,894l-0.2-1h-1.8l-0.2,1H966l1.4-5.5h0.6l1.4,5.5H968.8z M972,889h-1.2v5.1h-0.5V889
				h-1.2v-0.4h2.9l0,0V889z M973.6,894h-0.5v-5.5h0.5V894z"/>
			<polygon class="st3" points="967.7,889.3 966.9,892.5 968.4,892.5 968.4,892.5 967.7,889.3 			"/>
		</g>
	</g>
	<g>
		<path class="st3" d="M1279.5,849.6c-10.1,0-18.3,8.1-18.3,18.1c0,10,8.2,18.1,18.3,18.1s18.3-8.1,18.3-18.1
			C1297.8,857.7,1289.6,849.6,1279.5,849.6z M1279.5,884.7c-9.5,0-17.2-7.6-17.2-17s7.7-17,17.2-17s17.2,7.6,17.2,17
			S1289,884.7,1279.5,884.7z"/>
		<path class="st3" d="M1279.5,851.7c-9,0-16.2,7.2-16.2,16c0,8.8,7.3,16,16.2,16s16.2-7.2,16.2-16
			C1295.7,858.9,1288.4,851.7,1279.5,851.7z M1275.3,872.4h-2v-5.6l-2.3,5.6l0,0h-1.3l0,0l-2.1-5.1v5.1h-2v-9h2.5l2.4,5.6l2.4-5.6
			l0,0h2.6V872.4z M1279.4,872.4h-2.2v-9l0,0h2.2V872.4z M1289.4,872.4h-2l-4-5.5v5.5h-2v-9h2l4,5.5v-5.5h2V872.4z M1291.2,863.4
			L1291.2,863.4h2.2v9h-2.2V863.4z"/>
		<path class="st3" d="M1297.9,857.2L1297.9,857.2c-3.8-6.5-10.8-10.5-18.4-10.5s-14.6,4-18.4,10.5h-31.6l0.3,0.4
			c0.1,0.1,10,13.9,25.6,24l0.1,0h8.2c4.1,4.5,9.8,7.1,15.9,7.1s11.9-2.6,15.9-7.1h8.1l0.1,0c15.6-10.1,25.5-23.9,25.6-24l0.3-0.4
			H1297.9z M1325.9,860.9h-26.6c0.4,1.2,0.7,2.4,0.9,3.7h0.7c-0.2-0.9-0.4-1.9-0.7-2.8C1300.2,861.8,1322.7,861.3,1325.9,860.9
			c-2,2.4-4,4.6-6.2,6.8h-19.2l0,0.1c0,1.2-0.1,2.4-0.3,3.6h1c0.1-0.9,0.2-1.8,0.2-2.7l0-0.1c0,0,15.5-0.5,18.3-0.8
			c-2.4,2.4-4.8,4.6-7.4,6.8h-13c-0.4,1.3-1,2.5-1.7,3.7h1.3c0.5-0.9,0.9-1.8,1.2-2.8c0,0,9.6-0.5,11.9-0.8
			c-2.8,2.3-5.7,4.5-8.8,6.5h-8.2l-0.1,0.1c-7.7,8.6-20.9,9.4-29.5,1.7c-0.6-0.5-1.2-1.1-1.7-1.7l-0.1-0.1h-8.3
			c-3.1-2-6-4.2-8.8-6.5c2.5,0.3,12.9,0.8,12.9,0.8c0.5,1,1.1,1.9,1.7,2.8h0c-0.7-1.2-1.3-2.4-1.7-3.7h-13.1c-2.6-2.1-5-4.4-7.4-6.8
			c2.8,0.3,19,0.8,19,0.9c0,0.9,0.3,1.7,0.6,2.6c-0.2-1.1-0.3-2.3-0.3-3.5l0-0.1h-19.4c-2.1-2.2-4.2-4.4-6.2-6.7l26.1,0.9
			c-0.1,0.9-0.2,1.8-0.3,2.8h0c0.2-1.3,0.5-2.5,0.9-3.7h-26.7c-0.9-1-1.7-2.1-2.5-3.2h30.9l0.1-0.1c3.7-6.4,10.6-10.4,18.1-10.4
			s14.4,4,18.1,10.4l0.1,0.1h30.8C1327.7,858.8,1326.8,859.9,1325.9,860.9z"/>
	</g>
	<g>
		<path class="st3" d="M1630.3,832.9L1630.3,832.9c-3-0.7-16.8-1.7-28.9-1.7c-12.3,0-26.2,1-29.2,1.7c-1.5,0.3-5.9,1.3-5.9,6.5
			c0,6.6,0.2,40.1,3.6,44.7c5.9,8.1,29.9,18.5,30.9,18.9c0.3,0.1,0.7,0.1,1.1,0c1-0.4,25.9-10.9,30.9-19c3.3-5.3,3.5-44.3,3.5-44.6
			C1636.2,834.3,1631.7,833.3,1630.3,832.9z M1630.3,882.7c-4.2,6.8-25.5,16.1-29.1,17.7c-3.6-1.6-24.2-10.9-29.2-17.8
			c-2.2-3.1-3.1-28.1-3.1-43.1c0-2.2,1-3.2,3.8-3.8c2.6-0.6,16.1-1.6,28.6-1.6c12.3,0,25.7,1.1,28.3,1.6c2.8,0.6,3.8,1.6,3.8,3.8
			C1633.5,847.2,1632.7,878.9,1630.3,882.7z"/>
		<path class="st3" d="M1602.3,850.2c0.4-1.3,3.2-3.1,3.6-2.7c0-0.5,2-2.3,2.8-2c-0.2-0.6,2.6-2.3,3.3-1.8c0.2-0.7,4.2-1.3,5-0.6
			c0.5-0.5,4.1,0.4,4.2,1.3c0.7-0.6,4.3,3.3,4.3,5.3c0,0.8-3.5-2.3-5.6-1.6c-3.6,1.1-8.2,4.9-12.2,10.7c-1.1,1.6-4,2.1-4.6-0.4
			C1603.2,858.2,1601.9,851.5,1602.3,850.2L1602.3,850.2z"/>
		<path class="st3" d="M1602,886.1c-0.6-1-0.4-2.1,0.1-2.6c0.7-0.6,2.6-0.1,2.7-0.7c0.4-1.4-0.6-1.9-0.4-3.8c0-0.7,1.3-5.5,1.6-5.9
			c0.3-0.4,1.9-0.9,2.3-1.1c0.3-0.3,0.5-0.7,0.5-1.3c-2.1-0.7-2.7,1.3-3,1.2c-0.3-0.1,0.2-2.1,0.4-2.4c0.3-0.2,2.7-0.8,3-1.2
			c0.3-0.5,1.5-4.9,0-5c0.1,0-0.1-0.3,0-0.3c3,0.7,5-13.5,12.3-13.5c7.3,0.1,6.9,10.6,6.5,11c-0.8,0.7-2,0.5-2.1,1.1
			c-0.4,6.4-6.1,13.3-7.9,12.7c-1-0.4-0.2-3.6,0.3-3.7c-0.5-0.2,0-3.6,0.5-3.7c-0.4-0.3,0-3.4,0.5-3.4c-0.3-0.2-0.2-2.4-0.8-3.4
			c-0.4-0.8-2.2-1.2-2.3,0.7c1.1-0.5,1.2,3,0.7,3.7c-0.5,0.6-3.4,2-4.3,2.7c0.1,1.5-1.4,7.4-2.4,9c-1.1,1.6-2.1,2.6-2.7,4.2
			c-0.6,1.5-0.2,4.1-1.6,5.3C1605.5,886.3,1602.3,886.5,1602,886.1L1602,886.1z"/>
		<path class="st3" d="M1627,862.2c0.4-0.6,1.8-0.8,2.3-0.5c0.6,0.3,1,5,0.4,5.1c0.5,0.3-0.1,3.8-0.8,3.8c0.5,0.2-0.6,3.7-1.2,3.5
			c0.4,0.5-1.4,3.3-1.9,3.2c-0.2,2.9-8.8,4.3-8.7,1.8c0.1-1.2,1.4,0.6,7.2-8.5C1626.9,866.5,1626.5,863.1,1627,862.2L1627,862.2z
			 M1600.1,850.3c-0.6-1.3-3.1-3.1-3.5-2.7c0-0.5-2-2.4-2.8-2c0.2-0.6-2.6-2.3-3.3-1.8c-0.1-0.7-4.2-1.3-5-0.6
			c-0.5-0.5-4.1,0.3-4.2,1.3c-0.7-0.6-4.4,3.3-4.3,5.3c0,0.7,3.4-2.3,5.6-1.7c3.6,1.1,8.2,5,12.2,10.7c1.1,1.6,3.9,2.2,4.5-0.4
			C1599.3,858.3,1600.8,851.6,1600.1,850.3L1600.1,850.3z"/>
		<path class="st3" d="M1600.4,886.1c0.6-1,0.5-2.1,0-2.6c-0.6-0.6-2.5-0.1-2.7-0.6c-0.4-1.4,0.6-1.9,0.5-3.8
			c-0.1-0.7-1.3-5.5-1.6-5.9c-0.3-0.4-1.9-0.9-2.3-1.1c-0.3-0.3-0.5-0.7-0.5-1.3c2.1-0.6,2.7,1.3,3,1.3c0.3-0.1-0.2-2.2-0.4-2.4
			c-0.3-0.2-2.7-0.8-3.1-1.2c-0.3-0.4-1.4-4.9,0-5c-0.1,0,0.1-0.3,0-0.3c-3,0.7-5-13.5-12.3-13.5c-7.3,0-6.9,10.6-6.4,11
			c0.8,0.7,2,0.5,2.1,1.1c0.4,6.4,6.1,13.3,7.9,12.7c1-0.3,0.1-3.6-0.3-3.7c0.4-0.2,0-3.6-0.5-3.6c0.4-0.3,0-3.4-0.5-3.5
			c0.3-0.2,0.2-2.3,0.8-3.4c0.4-0.8,2.2-1.3,2.3,0.7c-1.1-0.5-1.2,3-0.7,3.6c0.4,0.6,3.4,2,4.3,2.7c-0.1,1.5,1.4,7.3,2.4,9
			c1.1,1.7,2.1,2.7,2.7,4.2c0.6,1.5,0.9,4.6,1.6,5.3C1597.1,886.4,1600.2,886.6,1600.4,886.1L1600.4,886.1z M1601.3,889
			c-2.3,0-4.3-1.6-3.9-2c0.8-0.8,2.2,0.4,3.8-0.3c1.6,0.7,2.9-0.5,4,0.3C1605.7,887.4,1603.5,889,1601.3,889z"/>
		<path class="st3" d="M1575.5,862.3c-0.3-0.6-1.7-0.7-2.3-0.4c-0.6,0.3-1,4.8-0.4,5c-0.5,0.3,0.2,3.8,0.8,3.8
			c-0.5,0.2,0.6,3.7,1.2,3.6c-0.4,0.5,1.4,3.3,1.9,3.2c0.2,2.9,8.8,4.3,8.7,1.8c-0.1-1.2-1.4,0.5-7.2-8.6
			C1575.6,866.6,1576.1,863.1,1575.5,862.3L1575.5,862.3z"/>
	</g>
</g>
</svg>
